<svg xmlns="http://www.w3.org/2000/svg" viewBox="0 0 420 880" width="420" height="880" role="img"><defs>
    <linearGradient id="bg" x1="0" y1="0" x2="1" y2="1">
      <stop offset="0" stop-color="#081220"/><stop offset="1" stop-color="#0c1a2e"/>
    </linearGradient>
    <linearGradient id="acc" x1="0" y1="0" x2="1" y2="0">
      <stop offset="0" stop-color="#2563eb"/><stop offset="1" stop-color="#22d3ee"/>
    </linearGradient>
    <linearGradient id="sheen" x1="0" y1="0" x2="0" y2="1">
      <stop offset="0" stop-color="#ffffff" stop-opacity="0.07"/>
      <stop offset="1" stop-color="#ffffff" stop-opacity="0"/>
    </linearGradient>
    <radialGradient id="glow" cx="0.5" cy="0.5" r="0.5">
      <stop offset="0" stop-color="#2563eb" stop-opacity="0.38"/>
      <stop offset="1" stop-color="#2563eb" stop-opacity="0"/>
    </radialGradient>
    <filter id="soft" x="-30%" y="-30%" width="160%" height="160%">
      <feGaussianBlur stdDeviation="22"/></filter>
  </defs><rect width="420" height="880" fill="url(#bg)"/><ellipse cx="210.0" cy="40" rx="260" ry="180" fill="url(#glow)" filter="url(#soft)" opacity="0.7"/><text x="24" y="24" font-family="Inter,'Segoe UI',system-ui,sans-serif" font-size="11.5" font-weight="700" fill="#9db4d8" text-anchor="start">9:41</text><text x="396" y="24" font-family="Inter,'Segoe UI',system-ui,sans-serif" font-size="11" font-weight="700" fill="#6b82a8" text-anchor="end">▮▮▮  ⏶  ▰</text><rect x="0" y="38" width="420" height="62" rx="0" fill="#0c1a2e"/><line x1="0" y1="100" x2="420" y2="100" stroke="#27456f" stroke-width="1"/><rect x="20" y="54" width="32" height="30" rx="9" fill="url(#acc)"/><text x="36" y="74" font-family="Inter,'Segoe UI',system-ui,sans-serif" font-size="12" font-weight="800" fill="#fff" text-anchor="middle">EG</text><text x="62" y="74" font-family="Inter,'Segoe UI',system-ui,sans-serif" font-size="14" font-weight="800" fill="#eaf1ff" text-anchor="start">Attendance</text><rect x="350" y="55" width="50" height="28" rx="14" fill="#16294a" stroke="#27456f" stroke-width="1"/><text x="375" y="73" font-family="Inter,'Segoe UI',system-ui,sans-serif" font-size="10" font-weight="700" fill="#9db4d8" text-anchor="middle">AR|EN</text><rect x="312" y="55" width="30" height="28" rx="14" fill="#16294a" stroke="#27456f" stroke-width="1"/><text x="327" y="73" font-family="Inter,'Segoe UI',system-ui,sans-serif" font-size="10" font-weight="700" fill="#9db4d8" text-anchor="middle">◐</text><rect x="20" y="124" width="380" height="300" rx="14" fill="#132544" stroke="#27456f" stroke-width="1"/><rect x="20" y="124" width="380" height="60" rx="14" fill="url(#sheen)"/><rect x="20" y="138" width="3" height="26" rx="2" fill="#16a34a"/><text x="36" y="151" font-family="Inter,'Segoe UI',system-ui,sans-serif" font-size="12.5" font-weight="700" fill="#eaf1ff" text-anchor="start">Today</text><text x="384" y="150" font-family="Inter,'Segoe UI',system-ui,sans-serif" font-size="10.5" font-weight="600" fill="#6b82a8" text-anchor="end">06 Oct</text><circle cx="210.0" cy="248" r="76" fill="#16a34a" opacity="0.10"/><circle cx="210.0" cy="248" r="76" fill="none" stroke="#16a34a" stroke-width="1.6" stroke-opacity="0.65"/><circle cx="210.0" cy="248" r="42.56" fill="none" stroke="#16a34a" stroke-width="1" stroke-opacity="0.35"/><circle cx="210.0" cy="234.32" r="7" fill="#16a34a"/><circle cx="210.0" cy="234.32" r="13" fill="none" stroke="#16a34a" stroke-opacity="0.6"/><text x="210" y="350" font-family="Inter,'Segoe UI',system-ui,sans-serif" font-size="12" font-weight="700" fill="#16a34a" text-anchor="middle">Inside office zone · 42 m</text><text x="210" y="384" font-family="Inter,'Segoe UI',system-ui,sans-serif" font-size="26" font-weight="800" fill="#eaf1ff" text-anchor="middle">08:54</text><rect x="80" y="396" width="260" height="44" rx="22" fill="#16a34a" opacity="0.18"/><rect x="80" y="396" width="260" height="44" rx="22" fill="none" stroke="#16a34a" stroke-width="1" opacity="0.5"/><text x="210" y="424" font-family="Inter,'Segoe UI',system-ui,sans-serif" font-size="12.5" font-weight="700" fill="#16a34a" text-anchor="middle">Check out</text><rect x="20" y="440" width="380" height="112" rx="14" fill="#132544" stroke="#27456f" stroke-width="1"/><rect x="20" y="440" width="380" height="60" rx="14" fill="url(#sheen)"/><text x="36" y="467" font-family="Inter,'Segoe UI',system-ui,sans-serif" font-size="12.5" font-weight="700" fill="#eaf1ff" text-anchor="start">This month</text><text x="384" y="466" font-family="Inter,'Segoe UI',system-ui,sans-serif" font-size="10.5" font-weight="600" fill="#6b82a8" text-anchor="end">22 / 22</text><rect x="34" y="506" width="16" height="28" rx="5" fill="#2563eb" opacity="0.85"/><rect x="59" y="475" width="16" height="59" rx="5" fill="#2563eb" opacity="0.85"/><rect x="84" y="476" width="16" height="58" rx="5" fill="#2563eb" opacity="0.85"/><rect x="109" y="477" width="16" height="57" rx="5" fill="#d4a843" opacity="0.85"/><rect x="134" y="478" width="16" height="56" rx="5" fill="#2563eb" opacity="0.85"/><rect x="159" y="479" width="16" height="55" rx="5" fill="#2563eb" opacity="0.85"/><rect x="184" y="480" width="16" height="54" rx="5" fill="#2563eb" opacity="0.85"/><rect x="209" y="481" width="16" height="53" rx="5" fill="#2563eb" opacity="0.85"/><rect x="234" y="482" width="16" height="52" rx="5" fill="#2563eb" opacity="0.85"/><rect x="259" y="483" width="16" height="51" rx="5" fill="#2563eb" opacity="0.85"/><rect x="284" y="484" width="16" height="50" rx="5" fill="#d4a843" opacity="0.85"/><rect x="309" y="485" width="16" height="49" rx="5" fill="#2563eb" opacity="0.85"/><rect x="334" y="486" width="16" height="48" rx="5" fill="#2563eb" opacity="0.85"/><rect x="359" y="487" width="16" height="47" rx="5" fill="#2563eb" opacity="0.85"/><rect x="20" y="568" width="380" height="200" rx="14" fill="#132544" stroke="#27456f" stroke-width="1"/><rect x="20" y="568" width="380" height="60" rx="14" fill="url(#sheen)"/><text x="36" y="595" font-family="Inter,'Segoe UI',system-ui,sans-serif" font-size="12.5" font-weight="700" fill="#eaf1ff" text-anchor="start">Recent attendance</text><text x="384" y="594" font-family="Inter,'Segoe UI',system-ui,sans-serif" font-size="10.5" font-weight="600" fill="#6b82a8" text-anchor="end">View all</text><rect x="34" y="602" width="352" height="38" rx="9" fill="#182f52" opacity="0.75"/><text x="46" y="625" font-family="Inter,'Segoe UI',system-ui,sans-serif" font-size="10.5" font-weight="600" fill="#eaf1ff" text-anchor="start">Mon 06 · 08:54 → 17:06</text><rect x="296" y="609" width="78" height="24" rx="12" fill="#16a34a" opacity="0.16"/><rect x="296" y="609" width="78" height="24" rx="12" fill="none" stroke="#16a34a" stroke-width="1" opacity="0.5"/><text x="335" y="625" font-family="Inter,'Segoe UI',system-ui,sans-serif" font-size="11" font-weight="700" fill="#16a34a" text-anchor="middle">Present</text><rect x="34" y="646" width="352" height="38" rx="9" fill="#182f52" opacity="0.75"/><text x="46" y="669" font-family="Inter,'Segoe UI',system-ui,sans-serif" font-size="10.5" font-weight="600" fill="#eaf1ff" text-anchor="start">Sun 05 · 08:54 → 17:06</text><rect x="316" y="653" width="58" height="24" rx="12" fill="#d4a843" opacity="0.16"/><rect x="316" y="653" width="58" height="24" rx="12" fill="none" stroke="#d4a843" stroke-width="1" opacity="0.5"/><text x="345" y="669" font-family="Inter,'Segoe UI',system-ui,sans-serif" font-size="11" font-weight="700" fill="#d4a843" text-anchor="middle">Late</text><rect x="34" y="690" width="352" height="38" rx="9" fill="#182f52" opacity="0.75"/><text x="46" y="713" font-family="Inter,'Segoe UI',system-ui,sans-serif" font-size="10.5" font-weight="600" fill="#eaf1ff" text-anchor="start">Thu 02 · 08:54 → 17:06</text><rect x="296" y="697" width="78" height="24" rx="12" fill="#16a34a" opacity="0.16"/><rect x="296" y="697" width="78" height="24" rx="12" fill="none" stroke="#16a34a" stroke-width="1" opacity="0.5"/><text x="335" y="713" font-family="Inter,'Segoe UI',system-ui,sans-serif" font-size="11" font-weight="700" fill="#16a34a" text-anchor="middle">Present</text><rect x="0" y="806" width="420" height="74" rx="0" fill="#0c1a2e"/><line x1="0" y1="806" x2="420" y2="806" stroke="#27456f" stroke-width="1"/><circle cx="42" cy="830" r="7" fill="none" stroke="#6b82a8" stroke-width="1.8"/><text x="42" y="852" font-family="Inter,'Segoe UI',system-ui,sans-serif" font-size="9.5" font-weight="500" fill="#6b82a8" text-anchor="middle">Home</text><rect x="98" y="814" width="56" height="44" rx="12" fill="#2563eb" opacity="0.18"/><circle cx="126" cy="830" r="7" fill="none" stroke="#22d3ee" stroke-width="1.8"/><text x="126" y="852" font-family="Inter,'Segoe UI',system-ui,sans-serif" font-size="9.5" font-weight="700" fill="#22d3ee" text-anchor="middle">Attendance</text><circle cx="210" cy="830" r="7" fill="none" stroke="#6b82a8" stroke-width="1.8"/><text x="210" y="852" font-family="Inter,'Segoe UI',system-ui,sans-serif" font-size="9.5" font-weight="500" fill="#6b82a8" text-anchor="middle">Services</text><circle cx="294" cy="830" r="7" fill="none" stroke="#6b82a8" stroke-width="1.8"/><text x="294" y="852" font-family="Inter,'Segoe UI',system-ui,sans-serif" font-size="9.5" font-weight="500" fill="#6b82a8" text-anchor="middle">Requests</text><circle cx="378" cy="830" r="7" fill="none" stroke="#6b82a8" stroke-width="1.8"/><text x="378" y="852" font-family="Inter,'Segoe UI',system-ui,sans-serif" font-size="9.5" font-weight="500" fill="#6b82a8" text-anchor="middle">Profile</text></svg>