<svg xmlns="http://www.w3.org/2000/svg" viewBox="0 0 560 380" width="560" height="380" role="img"><defs>
    <linearGradient id="bg" x1="0" y1="0" x2="1" y2="1">
      <stop offset="0" stop-color="#1b1319"/><stop offset="1" stop-color="#241a22"/>
    </linearGradient>
    <linearGradient id="acc" x1="0" y1="0" x2="1" y2="0">
      <stop offset="0" stop-color="#7c414c"/><stop offset="1" stop-color="#e3b375"/>
    </linearGradient>
    <linearGradient id="sheen" x1="0" y1="0" x2="0" y2="1">
      <stop offset="0" stop-color="#ffffff" stop-opacity="0.07"/>
      <stop offset="1" stop-color="#ffffff" stop-opacity="0"/>
    </linearGradient>
    <radialGradient id="glow" cx="0.5" cy="0.5" r="0.5">
      <stop offset="0" stop-color="#7c414c" stop-opacity="0.38"/>
      <stop offset="1" stop-color="#7c414c" stop-opacity="0"/>
    </radialGradient>
    <filter id="soft" x="-30%" y="-30%" width="160%" height="160%">
      <feGaussianBlur stdDeviation="22"/></filter>
  </defs><rect width="560" height="380" fill="url(#bg)"/><rect x="20" y="20" width="520" height="340" rx="18" fill="#2e2029" stroke="#4a3542" stroke-width="1"/><rect x="20" y="20" width="520" height="96" rx="18" fill="url(#sheen)"/><rect x="20" y="36" width="3" height="30" rx="2" fill="#8e3b45"/><text x="44" y="52" font-family="Inter,'Segoe UI',system-ui,sans-serif" font-size="10.5" font-weight="800" fill="#a8939e" text-anchor="start">STATE 05</text><text x="44" y="74" font-family="Inter,'Segoe UI',system-ui,sans-serif" font-size="17" font-weight="800" fill="#f6f1e4" text-anchor="start">Outside zone</text><rect x="400" y="40" width="120" height="24" rx="12" fill="#b1797b" opacity="0.16"/><rect x="400" y="40" width="120" height="24" rx="12" fill="none" stroke="#b1797b" stroke-width="1" opacity="0.5"/><text x="460" y="56" font-family="Inter,'Segoe UI',system-ui,sans-serif" font-size="11" font-weight="700" fill="#b1797b" text-anchor="middle">OUTSIDE</text><circle cx="124" cy="236" r="74" fill="#8e3b45" opacity="0.10"/><circle cx="124" cy="236" r="74" fill="none" stroke="#8e3b45" stroke-width="1.6" stroke-opacity="0.65"/><circle cx="124" cy="236" r="41.440000000000005" fill="none" stroke="#8e3b45" stroke-width="1" stroke-opacity="0.35"/><circle cx="211.32" cy="206.4" r="7" fill="#8e3b45"/><path d="M177.28 216.76 L205.4 208.62" stroke="#8e3b45" stroke-width="1.4" stroke-dasharray="4 4"/><text x="226" y="182" font-family="Inter,'Segoe UI',system-ui,sans-serif" font-size="15" font-weight="800" fill="#8e3b45" text-anchor="start">Rejected</text><text x="226" y="206" font-family="Inter,'Segoe UI',system-ui,sans-serif" font-size="24" font-weight="800" fill="#f6f1e4" text-anchor="start">—:—</text><text x="226" y="240" font-family="Inter,'Segoe UI',system-ui,sans-serif" font-size="11.5" font-weight="500" fill="#ddd0d4" text-anchor="start">Server rejects the check-in and explains t</text><text x="226" y="259" font-family="Inter,'Segoe UI',system-ui,sans-serif" font-size="11.5" font-weight="500" fill="#ddd0d4" text-anchor="start">he distance.</text><rect x="226" y="282" width="210" height="42" rx="21" fill="#8e3b45" opacity="0.18"/><rect x="226" y="282" width="210" height="42" rx="21" fill="none" stroke="#8e3b45" stroke-width="1" opacity="0.5"/><text x="331" y="309" font-family="Inter,'Segoe UI',system-ui,sans-serif" font-size="12.5" font-weight="700" fill="#8e3b45" text-anchor="middle">Out of range</text></svg>