<svg xmlns="http://www.w3.org/2000/svg" viewBox="0 0 1440 900" width="1440" height="900" role="img"><defs>
    <linearGradient id="bg" x1="0" y1="0" x2="1" y2="1">
      <stop offset="0" stop-color="#1b1319"/><stop offset="1" stop-color="#241a22"/>
    </linearGradient>
    <linearGradient id="acc" x1="0" y1="0" x2="1" y2="0">
      <stop offset="0" stop-color="#7c414c"/><stop offset="1" stop-color="#e3b375"/>
    </linearGradient>
    <linearGradient id="sheen" x1="0" y1="0" x2="0" y2="1">
      <stop offset="0" stop-color="#ffffff" stop-opacity="0.07"/>
      <stop offset="1" stop-color="#ffffff" stop-opacity="0"/>
    </linearGradient>
    <radialGradient id="glow" cx="0.5" cy="0.5" r="0.5">
      <stop offset="0" stop-color="#7c414c" stop-opacity="0.38"/>
      <stop offset="1" stop-color="#7c414c" stop-opacity="0"/>
    </radialGradient>
    <filter id="soft" x="-30%" y="-30%" width="160%" height="160%">
      <feGaussianBlur stdDeviation="22"/></filter>
  </defs><rect width="1440" height="900" fill="url(#bg)"/><ellipse cx="1123.2" cy="60" rx="540" ry="300" fill="url(#glow)" filter="url(#soft)" opacity="0.8"/><rect x="0" y="0" width="1440" height="52" rx="0" fill="#3a2a35"/><line x1="0" y1="52" x2="1440" y2="52" stroke="#4a3542" stroke-width="1"/><circle cx="26" cy="26.0" r="6" fill="#ff5f57"/><circle cx="46" cy="26.0" r="6" fill="#febc2e"/><circle cx="66" cy="26.0" r="6" fill="#28c840"/><rect x="500" y="14" width="440" height="24" rx="12" fill="#352531" stroke="#4a3542" stroke-width="1"/><text x="720" y="30" font-family="Inter,'Segoe UI',system-ui,sans-serif" font-size="12" font-weight="500" fill="#a8939e" text-anchor="middle">🔒  portal.eghr.local/my</text><rect x="0" y="52" width="1440" height="64" rx="0" fill="#241a22"/><line x1="0" y1="116" x2="1440" y2="116" stroke="#4a3542" stroke-width="1"/><rect x="36" y="68" width="36" height="32" rx="9" fill="url(#acc)"/><text x="54" y="89" font-family="Inter,'Segoe UI',system-ui,sans-serif" font-size="13" font-weight="800" fill="#fff" text-anchor="middle">EG</text><text x="82" y="84" font-family="Inter,'Segoe UI',system-ui,sans-serif" font-size="14" font-weight="800" fill="#f6f1e4" text-anchor="start">EGHR</text><text x="82" y="101" font-family="Inter,'Segoe UI',system-ui,sans-serif" font-size="10.5" font-weight="500" fill="#a8939e" text-anchor="start">Employee Portal</text><rect x="1334" y="69" width="70" height="30" rx="15" fill="#352531" stroke="#4a3542" stroke-width="1"/><text x="1369" y="88" font-family="Inter,'Segoe UI',system-ui,sans-serif" font-size="11" font-weight="600" fill="#ddd0d4" text-anchor="middle">AR  |  EN</text><rect x="1288" y="69" width="38" height="30" rx="15" fill="#352531" stroke="#4a3542" stroke-width="1"/><text x="1307" y="88" font-family="Inter,'Segoe UI',system-ui,sans-serif" font-size="11" font-weight="600" fill="#ddd0d4" text-anchor="middle">◐</text><rect x="1242" y="69" width="38" height="30" rx="15" fill="#352531" stroke="#4a3542" stroke-width="1"/><text x="1261" y="88" font-family="Inter,'Segoe UI',system-ui,sans-serif" font-size="11" font-weight="600" fill="#ddd0d4" text-anchor="middle">🔔</text><circle cx="1218" cy="84" r="16" fill="#7c414c" opacity="0.25"/><circle cx="1218" cy="84" r="16" fill="none" stroke="#e3b375" stroke-opacity="0.5"/><rect x="0" y="116" width="248" height="784" rx="0" fill="#241a22" opacity="0.9"/><line x1="248" y1="116" x2="248" y2="900" stroke="#4a3542" stroke-width="1"/><text x="24" y="154" font-family="Inter,'Segoe UI',system-ui,sans-serif" font-size="10" font-weight="700" fill="#a8939e" text-anchor="start">MENU</text><circle cx="28" cy="192" r="7" fill="none" stroke="#a8939e" stroke-width="1.6"/><text x="44" y="197" font-family="Inter,'Segoe UI',system-ui,sans-serif" font-size="13" font-weight="500" fill="#ddd0d4" text-anchor="start">Dashboard</text><circle cx="28" cy="240" r="7" fill="none" stroke="#a8939e" stroke-width="1.6"/><text x="44" y="245" font-family="Inter,'Segoe UI',system-ui,sans-serif" font-size="13" font-weight="500" fill="#ddd0d4" text-anchor="start">Attendance</text><circle cx="28" cy="288" r="7" fill="none" stroke="#a8939e" stroke-width="1.6"/><text x="44" y="293" font-family="Inter,'Segoe UI',system-ui,sans-serif" font-size="13" font-weight="500" fill="#ddd0d4" text-anchor="start">My Requests</text><circle cx="28" cy="336" r="7" fill="none" stroke="#a8939e" stroke-width="1.6"/><text x="44" y="341" font-family="Inter,'Segoe UI',system-ui,sans-serif" font-size="13" font-weight="500" fill="#ddd0d4" text-anchor="start">My Actions</text><circle cx="28" cy="384" r="7" fill="none" stroke="#a8939e" stroke-width="1.6"/><text x="44" y="389" font-family="Inter,'Segoe UI',system-ui,sans-serif" font-size="13" font-weight="500" fill="#ddd0d4" text-anchor="start">Services</text><circle cx="28" cy="432" r="7" fill="none" stroke="#a8939e" stroke-width="1.6"/><text x="44" y="437" font-family="Inter,'Segoe UI',system-ui,sans-serif" font-size="13" font-weight="500" fill="#ddd0d4" text-anchor="start">Announcements</text><rect x="12" y="460" width="224" height="40" rx="11" fill="#7c414c" opacity="0.18"/><rect x="12" y="468" width="3" height="24" rx="2" fill="#e3b375"/><circle cx="28" cy="480" r="7" fill="none" stroke="#e3b375" stroke-width="1.6"/><text x="44" y="485" font-family="Inter,'Segoe UI',system-ui,sans-serif" font-size="13" font-weight="700" fill="#f6f1e4" text-anchor="start">Profile</text><text x="284" y="178" font-family="Inter,'Segoe UI',system-ui,sans-serif" font-size="24" font-weight="800" fill="#f6f1e4" text-anchor="start">Profile</text><text x="284" y="202" font-family="Inter,'Segoe UI',system-ui,sans-serif" font-size="13" font-weight="500" fill="#a8939e" text-anchor="start">Employee record, surfaced read-only except for the Data Update service.</text><rect x="284" y="240" width="360" height="380" rx="16" fill="#2e2029" stroke="#4a3542" stroke-width="1"/><rect x="284" y="240" width="360" height="90" rx="16" fill="url(#sheen)"/><circle cx="464" cy="344" r="52" fill="#7c414c" opacity="0.2"/><circle cx="464" cy="344" r="52" fill="none" stroke="#e3b375" stroke-opacity="0.5"/><circle cx="464" cy="332" r="19" fill="#e3b375" opacity="0.5"/><path d="M432 382 q32 -28 64 0" fill="#e3b375" opacity="0.5"/><rect x="394" y="418" width="140" height="11" rx="5.5" fill="#44313d" opacity="1"/><rect x="414" y="440" width="100" height="9" rx="4.5" fill="#44313d" opacity="0.6"/><rect x="394" y="466" width="140" height="24" rx="12" fill="#a57d80" opacity="0.16"/><rect x="394" y="466" width="140" height="24" rx="12" fill="none" stroke="#a57d80" stroke-width="1" opacity="0.5"/><text x="464" y="482" font-family="Inter,'Segoe UI',system-ui,sans-serif" font-size="11" font-weight="700" fill="#a57d80" text-anchor="middle">Engineering</text><rect x="394" y="500" width="140" height="24" rx="12" fill="#a57d80" opacity="0.16"/><rect x="394" y="500" width="140" height="24" rx="12" fill="none" stroke="#a57d80" stroke-width="1" opacity="0.5"/><text x="464" y="516" font-family="Inter,'Segoe UI',system-ui,sans-serif" font-size="11" font-weight="700" fill="#a57d80" text-anchor="middle">Riyadh branch</text><rect x="394" y="534" width="140" height="24" rx="12" fill="#a57d80" opacity="0.16"/><rect x="394" y="534" width="140" height="24" rx="12" fill="none" stroke="#a57d80" stroke-width="1" opacity="0.5"/><text x="464" y="550" font-family="Inter,'Segoe UI',system-ui,sans-serif" font-size="11" font-weight="700" fill="#a57d80" text-anchor="middle">Sunday – Thursday</text><rect x="668" y="240" width="736" height="380" rx="16" fill="#2e2029" stroke="#4a3542" stroke-width="1"/><rect x="668" y="240" width="736" height="90" rx="16" fill="url(#sheen)"/><text x="688" y="272" font-family="Inter,'Segoe UI',system-ui,sans-serif" font-size="14.5" font-weight="700" fill="#f6f1e4" text-anchor="start">Employee information</text><rect x="688" y="298" width="336" height="60" rx="10" fill="#3a2a35" opacity="0.7"/><text x="704" y="322" font-family="Inter,'Segoe UI',system-ui,sans-serif" font-size="10.5" font-weight="700" fill="#a8939e" text-anchor="start">Employee ID</text><rect x="704" y="333" width="180" height="9" rx="4.5" fill="#44313d" opacity="1"/><rect x="1044" y="298" width="336" height="60" rx="10" fill="#3a2a35" opacity="0.7"/><text x="1060" y="322" font-family="Inter,'Segoe UI',system-ui,sans-serif" font-size="10.5" font-weight="700" fill="#a8939e" text-anchor="start">Job title</text><rect x="1060" y="333" width="180" height="9" rx="4.5" fill="#44313d" opacity="1"/><rect x="688" y="374" width="336" height="60" rx="10" fill="#3a2a35" opacity="0.7"/><text x="704" y="398" font-family="Inter,'Segoe UI',system-ui,sans-serif" font-size="10.5" font-weight="700" fill="#a8939e" text-anchor="start">Department</text><rect x="704" y="409" width="180" height="9" rx="4.5" fill="#44313d" opacity="1"/><rect x="1044" y="374" width="336" height="60" rx="10" fill="#3a2a35" opacity="0.7"/><text x="1060" y="398" font-family="Inter,'Segoe UI',system-ui,sans-serif" font-size="10.5" font-weight="700" fill="#a8939e" text-anchor="start">Manager</text><rect x="1060" y="409" width="180" height="9" rx="4.5" fill="#44313d" opacity="1"/><rect x="688" y="450" width="336" height="60" rx="10" fill="#3a2a35" opacity="0.7"/><text x="704" y="474" font-family="Inter,'Segoe UI',system-ui,sans-serif" font-size="10.5" font-weight="700" fill="#a8939e" text-anchor="start">Joining date</text><rect x="704" y="485" width="180" height="9" rx="4.5" fill="#44313d" opacity="1"/><rect x="1044" y="450" width="336" height="60" rx="10" fill="#3a2a35" opacity="0.7"/><text x="1060" y="474" font-family="Inter,'Segoe UI',system-ui,sans-serif" font-size="10.5" font-weight="700" fill="#a8939e" text-anchor="start">Contract</text><rect x="1060" y="485" width="180" height="9" rx="4.5" fill="#44313d" opacity="1"/><rect x="688" y="526" width="336" height="60" rx="10" fill="#3a2a35" opacity="0.7"/><text x="704" y="550" font-family="Inter,'Segoe UI',system-ui,sans-serif" font-size="10.5" font-weight="700" fill="#a8939e" text-anchor="start">Work email</text><rect x="704" y="561" width="180" height="9" rx="4.5" fill="#44313d" opacity="1"/><rect x="1044" y="526" width="336" height="60" rx="10" fill="#3a2a35" opacity="0.7"/><text x="1060" y="550" font-family="Inter,'Segoe UI',system-ui,sans-serif" font-size="10.5" font-weight="700" fill="#a8939e" text-anchor="start">Mobile</text><rect x="1060" y="561" width="180" height="9" rx="4.5" fill="#44313d" opacity="1"/></svg>