<svg xmlns="http://www.w3.org/2000/svg" viewBox="0 0 1440 900" width="1440" height="900" role="img"><defs>
    <linearGradient id="bg" x1="0" y1="0" x2="1" y2="1">
      <stop offset="0" stop-color="#07171c"/><stop offset="1" stop-color="#0b2129"/>
    </linearGradient>
    <linearGradient id="acc" x1="0" y1="0" x2="1" y2="0">
      <stop offset="0" stop-color="#0e7490"/><stop offset="1" stop-color="#17b3a6"/>
    </linearGradient>
    <linearGradient id="sheen" x1="0" y1="0" x2="0" y2="1">
      <stop offset="0" stop-color="#ffffff" stop-opacity="0.07"/>
      <stop offset="1" stop-color="#ffffff" stop-opacity="0"/>
    </linearGradient>
    <radialGradient id="glow" cx="0.5" cy="0.5" r="0.5">
      <stop offset="0" stop-color="#0e7490" stop-opacity="0.38"/>
      <stop offset="1" stop-color="#0e7490" stop-opacity="0"/>
    </radialGradient>
    <filter id="soft" x="-30%" y="-30%" width="160%" height="160%">
      <feGaussianBlur stdDeviation="22"/></filter>
  </defs><rect width="1440" height="900" fill="url(#bg)"/><ellipse cx="1123.2" cy="60" rx="540" ry="300" fill="url(#glow)" filter="url(#soft)" opacity="0.8"/><rect x="0" y="0" width="1440" height="52" rx="0" fill="#17414e"/><line x1="0" y1="52" x2="1440" y2="52" stroke="#1e5565" stroke-width="1"/><circle cx="26" cy="26.0" r="6" fill="#ff5f57"/><circle cx="46" cy="26.0" r="6" fill="#febc2e"/><circle cx="66" cy="26.0" r="6" fill="#28c840"/><rect x="500" y="14" width="440" height="24" rx="12" fill="#123742" stroke="#1e5565" stroke-width="1"/><text x="720" y="30" font-family="Inter,'Segoe UI',system-ui,sans-serif" font-size="12" font-weight="500" fill="#8fb0b7" text-anchor="middle">🔒  portal.eghr.local/my</text><rect x="0" y="52" width="1440" height="64" rx="0" fill="#0b2129"/><line x1="0" y1="116" x2="1440" y2="116" stroke="#1e5565" stroke-width="1"/><rect x="36" y="68" width="36" height="32" rx="9" fill="url(#acc)"/><text x="54" y="89" font-family="Inter,'Segoe UI',system-ui,sans-serif" font-size="13" font-weight="800" fill="#fff" text-anchor="middle">EG</text><text x="82" y="84" font-family="Inter,'Segoe UI',system-ui,sans-serif" font-size="14" font-weight="800" fill="#eef6f7" text-anchor="start">EGHR</text><text x="82" y="101" font-family="Inter,'Segoe UI',system-ui,sans-serif" font-size="10.5" font-weight="500" fill="#8fb0b7" text-anchor="start">Employee Portal</text><rect x="1334" y="69" width="70" height="30" rx="15" fill="#123742" stroke="#1e5565" stroke-width="1"/><text x="1369" y="88" font-family="Inter,'Segoe UI',system-ui,sans-serif" font-size="11" font-weight="600" fill="#c4dade" text-anchor="middle">AR  |  EN</text><rect x="1288" y="69" width="38" height="30" rx="15" fill="#123742" stroke="#1e5565" stroke-width="1"/><text x="1307" y="88" font-family="Inter,'Segoe UI',system-ui,sans-serif" font-size="11" font-weight="600" fill="#c4dade" text-anchor="middle">◐</text><rect x="1242" y="69" width="38" height="30" rx="15" fill="#123742" stroke="#1e5565" stroke-width="1"/><text x="1261" y="88" font-family="Inter,'Segoe UI',system-ui,sans-serif" font-size="11" font-weight="600" fill="#c4dade" text-anchor="middle">🔔</text><circle cx="1218" cy="84" r="16" fill="#0e7490" opacity="0.25"/><circle cx="1218" cy="84" r="16" fill="none" stroke="#17b3a6" stroke-opacity="0.5"/><rect x="0" y="116" width="248" height="784" rx="0" fill="#0b2129" opacity="0.9"/><line x1="248" y1="116" x2="248" y2="900" stroke="#1e5565" stroke-width="1"/><text x="24" y="154" font-family="Inter,'Segoe UI',system-ui,sans-serif" font-size="10" font-weight="700" fill="#8fb0b7" text-anchor="start">MENU</text><circle cx="28" cy="192" r="7" fill="none" stroke="#8fb0b7" stroke-width="1.6"/><text x="44" y="197" font-family="Inter,'Segoe UI',system-ui,sans-serif" font-size="13" font-weight="500" fill="#c4dade" text-anchor="start">Dashboard</text><circle cx="28" cy="240" r="7" fill="none" stroke="#8fb0b7" stroke-width="1.6"/><text x="44" y="245" font-family="Inter,'Segoe UI',system-ui,sans-serif" font-size="13" font-weight="500" fill="#c4dade" text-anchor="start">Attendance</text><circle cx="28" cy="288" r="7" fill="none" stroke="#8fb0b7" stroke-width="1.6"/><text x="44" y="293" font-family="Inter,'Segoe UI',system-ui,sans-serif" font-size="13" font-weight="500" fill="#c4dade" text-anchor="start">My Requests</text><circle cx="28" cy="336" r="7" fill="none" stroke="#8fb0b7" stroke-width="1.6"/><text x="44" y="341" font-family="Inter,'Segoe UI',system-ui,sans-serif" font-size="13" font-weight="500" fill="#c4dade" text-anchor="start">My Actions</text><rect x="12" y="364" width="224" height="40" rx="11" fill="#0e7490" opacity="0.18"/><rect x="12" y="372" width="3" height="24" rx="2" fill="#17b3a6"/><circle cx="28" cy="384" r="7" fill="none" stroke="#17b3a6" stroke-width="1.6"/><text x="44" y="389" font-family="Inter,'Segoe UI',system-ui,sans-serif" font-size="13" font-weight="700" fill="#eef6f7" text-anchor="start">Services</text><circle cx="28" cy="432" r="7" fill="none" stroke="#8fb0b7" stroke-width="1.6"/><text x="44" y="437" font-family="Inter,'Segoe UI',system-ui,sans-serif" font-size="13" font-weight="500" fill="#c4dade" text-anchor="start">Announcements</text><circle cx="28" cy="480" r="7" fill="none" stroke="#8fb0b7" stroke-width="1.6"/><text x="44" y="485" font-family="Inter,'Segoe UI',system-ui,sans-serif" font-size="13" font-weight="500" fill="#c4dade" text-anchor="start">Profile</text><text x="284" y="178" font-family="Inter,'Segoe UI',system-ui,sans-serif" font-size="24" font-weight="800" fill="#eef6f7" text-anchor="start">Time Off</text><text x="284" y="202" font-family="Inter,'Segoe UI',system-ui,sans-serif" font-size="13" font-weight="500" fill="#8fb0b7" text-anchor="start">New request</text><rect x="284" y="232" width="700" height="568" rx="16" fill="#102e38" stroke="#1e5565" stroke-width="1"/><rect x="284" y="232" width="700" height="90" rx="16" fill="url(#sheen)"/><text x="304" y="264" font-family="Inter,'Segoe UI',system-ui,sans-serif" font-size="14.5" font-weight="700" fill="#eef6f7" text-anchor="start">Request form</text><text x="304" y="300" font-family="Inter,'Segoe UI',system-ui,sans-serif" font-size="10.5" font-weight="700" fill="#8fb0b7" text-anchor="start">Leave type</text><rect x="304" y="308" width="660" height="42" rx="10" fill="#17414e" stroke="#1e5565" stroke-width="1"/><text x="318" y="335" font-family="Inter,'Segoe UI',system-ui,sans-serif" font-size="12.5" font-weight="600" fill="#eef6f7" text-anchor="start">Annual</text><text x="304" y="378" font-family="Inter,'Segoe UI',system-ui,sans-serif" font-size="10.5" font-weight="700" fill="#8fb0b7" text-anchor="start">Reason</text><rect x="304" y="386" width="660" height="42" rx="10" fill="#17414e" stroke="#1e5565" stroke-width="1"/><rect x="318" y="403" width="190" height="8" rx="4.0" fill="#1a4c5a" opacity="1"/><text x="304" y="456" font-family="Inter,'Segoe UI',system-ui,sans-serif" font-size="10.5" font-weight="700" fill="#8fb0b7" text-anchor="start">From date</text><rect x="304" y="464" width="322" height="42" rx="10" fill="#17414e" stroke="#1e5565" stroke-width="1"/><text x="318" y="491" font-family="Inter,'Segoe UI',system-ui,sans-serif" font-size="12.5" font-weight="600" fill="#eef6f7" text-anchor="start">12 Oct 2026</text><text x="642" y="456" font-family="Inter,'Segoe UI',system-ui,sans-serif" font-size="10.5" font-weight="700" fill="#8fb0b7" text-anchor="start">To date</text><rect x="642" y="464" width="322" height="42" rx="10" fill="#17414e" stroke="#1e5565" stroke-width="1"/><text x="656" y="491" font-family="Inter,'Segoe UI',system-ui,sans-serif" font-size="12.5" font-weight="600" fill="#eef6f7" text-anchor="start">14 Oct 2026</text><text x="304" y="534" font-family="Inter,'Segoe UI',system-ui,sans-serif" font-size="10.5" font-weight="700" fill="#8fb0b7" text-anchor="start">Working days</text><rect x="304" y="542" width="322" height="42" rx="10" fill="#17414e" stroke="#1e5565" stroke-width="1"/><text x="318" y="569" font-family="Inter,'Segoe UI',system-ui,sans-serif" font-size="12.5" font-weight="600" fill="#eef6f7" text-anchor="start">3</text><text x="642" y="534" font-family="Inter,'Segoe UI',system-ui,sans-serif" font-size="10.5" font-weight="700" fill="#8fb0b7" text-anchor="start">Balance after</text><rect x="642" y="542" width="322" height="42" rx="10" fill="#17414e" stroke="#1e5565" stroke-width="1"/><text x="656" y="569" font-family="Inter,'Segoe UI',system-ui,sans-serif" font-size="12.5" font-weight="600" fill="#eef6f7" text-anchor="start">15</text><text x="304" y="612" font-family="Inter,'Segoe UI',system-ui,sans-serif" font-size="10.5" font-weight="700" fill="#8fb0b7" text-anchor="start">Delegate to</text><rect x="304" y="620" width="660" height="42" rx="10" fill="#17414e" stroke="#1e5565" stroke-width="1"/><rect x="318" y="637" width="190" height="8" rx="4.0" fill="#1a4c5a" opacity="1"/><text x="304" y="690" font-family="Inter,'Segoe UI',system-ui,sans-serif" font-size="10.5" font-weight="700" fill="#8fb0b7" text-anchor="start">Attachment</text><rect x="304" y="698" width="660" height="42" rx="10" fill="#17414e" stroke="#1e5565" stroke-width="1"/><text x="318" y="725" font-family="Inter,'Segoe UI',system-ui,sans-serif" font-size="12.5" font-weight="600" fill="#eef6f7" text-anchor="start">leave-form.pdf</text><rect x="304" y="732" width="180" height="44" rx="22" fill="url(#acc)"/><text x="394" y="760" font-family="Inter,'Segoe UI',system-ui,sans-serif" font-size="13" font-weight="700" fill="#fff" text-anchor="middle">Submit request</text><rect x="498" y="732" width="120" height="44" rx="22" fill="#17414e" stroke="#1e5565" stroke-width="1"/><text x="558" y="760" font-family="Inter,'Segoe UI',system-ui,sans-serif" font-size="13" font-weight="700" fill="#c4dade" text-anchor="middle">Cancel</text><rect x="1008" y="232" width="396" height="568" rx="16" fill="#102e38" stroke="#1e5565" stroke-width="1"/><rect x="1008" y="232" width="396" height="90" rx="16" fill="url(#sheen)"/><rect x="1008" y="248" width="3" height="34" rx="2" fill="#0e7490"/><text x="1028" y="264" font-family="Inter,'Segoe UI',system-ui,sans-serif" font-size="14.5" font-weight="700" fill="#eef6f7" text-anchor="start">Policy &amp; validation</text><rect x="1028" y="294" width="356" height="58" rx="10" fill="#17414e" opacity="0.7"/><circle cx="1042" cy="323" r="4" fill="#0e7490"/><text x="1056" y="320" font-family="Inter,'Segoe UI',system-ui,sans-serif" font-size="11.5" font-weight="600" fill="#c4dade" text-anchor="start">Balance checked server-side on submit.</text><rect x="1028" y="366" width="356" height="58" rx="10" fill="#17414e" opacity="0.7"/><circle cx="1042" cy="395" r="4" fill="#0e7490"/><text x="1056" y="392" font-family="Inter,'Segoe UI',system-ui,sans-serif" font-size="11.5" font-weight="600" fill="#c4dade" text-anchor="start">Overlapping leave is blocked by constraint.</text><rect x="1028" y="438" width="356" height="58" rx="10" fill="#17414e" opacity="0.7"/><circle cx="1042" cy="467" r="4" fill="#0e7490"/><text x="1056" y="464" font-family="Inter,'Segoe UI',system-ui,sans-serif" font-size="11.5" font-weight="600" fill="#c4dade" text-anchor="start">Approval route resolved from the employee's </text><text x="1056" y="482" font-family="Inter,'Segoe UI',system-ui,sans-serif" font-size="11.5" font-weight="600" fill="#c4dade" text-anchor="start">manager chain.</text><rect x="1028" y="510" width="356" height="58" rx="10" fill="#17414e" opacity="0.7"/><circle cx="1042" cy="539" r="4" fill="#0e7490"/><text x="1056" y="536" font-family="Inter,'Segoe UI',system-ui,sans-serif" font-size="11.5" font-weight="600" fill="#c4dade" text-anchor="start">Draft is kept until the employee submits.</text><rect x="1028" y="582" width="356" height="58" rx="10" fill="#17414e" opacity="0.7"/><circle cx="1042" cy="611" r="4" fill="#0e7490"/><text x="1056" y="608" font-family="Inter,'Segoe UI',system-ui,sans-serif" font-size="11.5" font-weight="600" fill="#c4dade" text-anchor="start">Attachment types and size are validated.</text></svg>