<svg xmlns="http://www.w3.org/2000/svg" viewBox="0 0 1200 750" width="1200" height="750">
  
  <defs>
    <linearGradient id="bg" x1="0" y1="0" x2="1" y2="1">
      <stop offset="0" stop-color="#0a1524"/>
      <stop offset="1" stop-color="#0d1b2e"/>
    </linearGradient>
    <linearGradient id="acc" x1="0" y1="0" x2="1" y2="1">
      <stop offset="0" stop-color="#2563eb"/>
      <stop offset="1" stop-color="#22d3ee"/>
    </linearGradient>
    <linearGradient id="glass" x1="0" y1="0" x2="0" y2="1">
      <stop offset="0" stop-color="#ffffff" stop-opacity="0.09"/>
      <stop offset="1" stop-color="#ffffff" stop-opacity="0.02"/>
    </linearGradient>
    <radialGradient id="glow" cx="0.5" cy="0.5" r="0.5">
      <stop offset="0" stop-color="#2563eb" stop-opacity="0.55"/>
      <stop offset="1" stop-color="#2563eb" stop-opacity="0"/>
    </radialGradient>
    <filter id="soft" x="-20%" y="-20%" width="140%" height="140%">
      <feGaussianBlur stdDeviation="18"/>
    </filter>
    <pattern id="grid" width="34" height="34" patternUnits="userSpaceOnUse">
      <path d="M34 0H0V34" fill="none" stroke="#ffffff" stroke-opacity="0.035" stroke-width="1"/>
    </pattern>
  </defs>
  
  <rect width="1200" height="750" fill="url(#bg)"/>
  <rect width="1200" height="750" fill="url(#grid)"/>
  <ellipse cx="120" cy="90" rx="360" ry="300" fill="url(#glow)" filter="url(#soft)" opacity="0.9"/>
  <ellipse cx="1120" cy="720" rx="380" ry="300" fill="url(#glow)" filter="url(#soft)" opacity="0.6"/>
  <g transform="translate(100,64)">
    <rect x="0" y="0" width="1000" height="52" rx="16" fill="#16294a"/>
    <rect x="0" y="26" width="1000" height="26" fill="#16294a"/>
    <circle cx="30" cy="26" r="6" fill="#ff5f57"/>
    <circle cx="52" cy="26" r="6" fill="#febc2e"/>
    <circle cx="74" cy="26" r="6" fill="#28c840"/>
    <rect x="360" y="15" width="280" height="22" rx="11" fill="#0a1524" opacity="0.6"/>
    <text x="500" y="30" font-family="Inter,Segoe UI,sans-serif" font-size="12"
          fill="#5f78a3" text-anchor="middle">dotec.odoo · Timesheets</text>
    <rect x="836" y="14" width="150" height="24" rx="12" fill="url(#acc)" opacity="0.9"/>
    <text x="911" y="30" font-family="Inter,sans-serif" font-size="11" font-weight="700"
          fill="#04122a" text-anchor="middle" letter-spacing="0.5">WORKLOAD & EXPENSES</text><rect x="0" y="70" width="88" height="480" rx="16" fill="#101f36"/><rect x="18" y="90" width="52" height="34" rx="10" fill="url(#acc)" opacity="1"/><rect x="30" y="101" width="28" height="4" rx="2" fill="#04122a" opacity="0.9"/><rect x="18" y="138" width="52" height="34" rx="10" fill="#16294a" opacity="0.8"/><rect x="30" y="149" width="28" height="4" rx="2" fill="#5f78a3" opacity="0.9"/><rect x="18" y="186" width="52" height="34" rx="10" fill="#16294a" opacity="0.8"/><rect x="30" y="197" width="28" height="4" rx="2" fill="#5f78a3" opacity="0.9"/><rect x="18" y="234" width="52" height="34" rx="10" fill="#16294a" opacity="0.8"/><rect x="30" y="245" width="28" height="4" rx="2" fill="#5f78a3" opacity="0.9"/><rect x="18" y="282" width="52" height="34" rx="10" fill="#16294a" opacity="0.8"/><rect x="30" y="293" width="28" height="4" rx="2" fill="#5f78a3" opacity="0.9"/><rect x="18" y="330" width="52" height="34" rx="10" fill="#16294a" opacity="0.8"/><rect x="30" y="341" width="28" height="4" rx="2" fill="#5f78a3" opacity="0.9"/>
    <rect x="108" y="84" width="196" height="96" rx="14" fill="url(#glass)" stroke="#24406b" stroke-width="1"/>
    <text x="126" y="118" font-family="Space Grotesk,Inter,sans-serif" font-size="30" font-weight="700" fill="#eaf1ff">1.9k</text>
    <text x="126" y="138" font-family="Inter,sans-serif" font-size="12" fill="#9db4d8">Hours</text>
    <rect x="126" y="137.8301198490239" width="10" height="16.169880150976084" rx="3" fill="url(#acc)" opacity="0.6340361567495401"/><rect x="140" y="142.95932460910367" width="10" height="11.040675390896313" rx="3" fill="url(#acc)" opacity="0.535397603671083"/><rect x="154" y="131.4638477921424" width="10" height="22.53615220785761" rx="3" fill="url(#acc)" opacity="0.7564644655357233"/><rect x="168" y="141.55528391044413" width="10" height="12.444716089555861" rx="3" fill="url(#acc)" opacity="0.5623983863376127"/><rect x="182" y="137.12418498408158" width="10" height="16.875815015918427" rx="3" fill="url(#acc)" opacity="0.6476118272292006"/><rect x="196" y="128.95399775258363" width="10" height="25.046002247416357" rx="3" fill="url(#acc)" opacity="0.8047308124503145"/>
    <rect x="320" y="84" width="196" height="96" rx="14" fill="url(#glass)" stroke="#24406b" stroke-width="1"/>
    <text x="338" y="118" font-family="Space Grotesk,Inter,sans-serif" font-size="30" font-weight="700" fill="#eaf1ff">$180k</text>
    <text x="338" y="138" font-family="Inter,sans-serif" font-size="12" fill="#9db4d8">Expenses</text>
    <rect x="338" y="147.69728618402536" width="10" height="6.302713815974634" rx="3" fill="url(#acc)" opacity="0.44428295799951223"/><rect x="352" y="143.31513983758117" width="10" height="10.684860162418843" rx="3" fill="url(#acc)" opacity="0.5285550031234394"/><rect x="366" y="124.94772896565483" width="10" height="29.05227103434517" rx="3" fill="url(#acc)" opacity="0.8817744429681764"/><rect x="380" y="135.37275587701006" width="10" height="18.627244122989943" rx="3" fill="url(#acc)" opacity="0.6812931562113451"/><rect x="394" y="137.15194281363478" width="10" height="16.848057186365217" rx="3" fill="url(#acc)" opacity="0.6470780228147157"/><rect x="408" y="136.40831099505192" width="10" height="17.591689004948094" rx="3" fill="url(#acc)" opacity="0.6613786347105403"/>
    <rect x="532" y="84" width="196" height="96" rx="14" fill="url(#glass)" stroke="#24406b" stroke-width="1"/>
    <text x="550" y="118" font-family="Space Grotesk,Inter,sans-serif" font-size="30" font-weight="700" fill="#eaf1ff">92%</text>
    <text x="550" y="138" font-family="Inter,sans-serif" font-size="12" fill="#9db4d8">Utilization</text>
    <rect x="550" y="147.42295576016693" width="10" height="6.577044239833075" rx="3" fill="url(#acc)" opacity="0.449558543073713"/><rect x="564" y="128.64037566287405" width="10" height="25.35962433712595" rx="3" fill="url(#acc)" opacity="0.8107620064831913"/><rect x="578" y="143.0801322738198" width="10" height="10.919867726180208" rx="3" fill="url(#acc)" opacity="0.5330743793496193"/><rect x="592" y="128.30306157766665" width="10" height="25.69693842233334" rx="3" fill="url(#acc)" opacity="0.8172488158141027"/><rect x="606" y="138.73739000345194" width="10" height="15.262609996548054" rx="3" fill="url(#acc)" opacity="0.6165886537797702"/><rect x="620" y="144.1010300786681" width="10" height="9.898969921331897" rx="3" fill="url(#acc)" opacity="0.5134417292563827"/>
    <rect x="744" y="84" width="196" height="96" rx="14" fill="url(#glass)" stroke="#24406b" stroke-width="1"/>
    <text x="762" y="118" font-family="Space Grotesk,Inter,sans-serif" font-size="30" font-weight="700" fill="#eaf1ff">5</text>
    <text x="762" y="138" font-family="Inter,sans-serif" font-size="12" fill="#9db4d8">Teams</text>
    <rect x="762" y="128.21848680316117" width="10" height="25.78151319683882" rx="3" fill="url(#acc)" opacity="0.8188752537853619"/><rect x="776" y="144.11346713241554" width="10" height="9.886532867584464" rx="3" fill="url(#acc)" opacity="0.5132025551458551"/><rect x="790" y="133.1142942547684" width="10" height="20.885705745231597" rx="3" fill="url(#acc)" opacity="0.724725110485223"/><rect x="804" y="131.2242605743347" width="10" height="22.775739425665307" rx="3" fill="url(#acc)" opacity="0.7610719120320252"/><rect x="818" y="138.90515985283048" width="10" height="15.094840147169517" rx="3" fill="url(#acc)" opacity="0.6133623105224908"/><rect x="832" y="131.31754470923036" width="10" height="22.682455290769646" rx="3" fill="url(#acc)" opacity="0.7592779863609548"/>
    <rect x="108" y="196" width="470" height="190" rx="16" fill="url(#glass)" stroke="#24406b" stroke-width="1"/>
    <text x="128" y="226" font-family="Inter,sans-serif" font-size="14" font-weight="600" fill="#eaf1ff">Pipeline value / month</text>
    <polygon points="128,362 128,362 189,334 251,348 312,306 374,320 435,264 497,278 558,236 558,362" fill="url(#acc)" opacity="0.14"/>
    <polyline points="128,362 189,334 251,348 312,306 374,320 435,264 497,278 558,236" fill="none" stroke="url(#acc)" stroke-width="3" stroke-linecap="round" stroke-linejoin="round"/>
    <circle cx="128" cy="362" r="4" fill="#2563eb"/><circle cx="189" cy="334" r="4" fill="#2563eb"/><circle cx="251" cy="348" r="4" fill="#2563eb"/><circle cx="312" cy="306" r="4" fill="#2563eb"/><circle cx="374" cy="320" r="4" fill="#2563eb"/><circle cx="435" cy="264" r="4" fill="#2563eb"/><circle cx="497" cy="278" r="4" fill="#2563eb"/><circle cx="558" cy="236" r="4" fill="#2563eb"/><circle cx="760" cy="292" r="66" fill="none" stroke="#16294a" stroke-width="18"/><path d="M 760.0 226.0 A 66 66 0 1 1 751.7 357.5" fill="none" stroke="#2563eb" stroke-width="18" stroke-linecap="round"/><path d="M 751.7 357.5 A 66 66 0 0 1 697.2 271.6" fill="none" stroke="#22d3ee" stroke-width="18" stroke-linecap="round"/><path d="M 697.2 271.6 A 66 66 0 0 1 760.0 226.0" fill="none" stroke="#8b5cf6" stroke-width="18" stroke-linecap="round"/><text x="760" y="298" font-family="Space Grotesk,Inter" font-size="26" font-weight="700" fill="#eaf1ff" text-anchor="middle">100</text><rect x="620" y="196" width="272" height="190" rx="16" fill="url(#glass)" stroke="#24406b" stroke-width="1"/><text x="640" y="226" font-family="Inter" font-size="14" font-weight="600" fill="#eaf1ff">Distribution</text><rect x="108" y="400" width="784" height="150" rx="16" fill="url(#glass)" stroke="#24406b" stroke-width="1"/><text x="128.0" y="428" font-family="Inter,sans-serif" font-size="12" font-weight="600" fill="#9db4d8">New</text><circle cx="295.0" cy="424" r="8" fill="#16294a"/><text x="295.0" y="428" font-family="Inter" font-size="9" fill="#9db4d8" text-anchor="middle">6</text><rect x="124.0" y="440" width="177" height="32" rx="8" fill="#16294a"/><rect x="134.0" y="449" width="88" height="5" rx="2.5" fill="#5f78a3"/><rect x="134.0" y="459" width="53" height="4" rx="2" fill="#24406b"/><circle cx="287" cy="456" r="6" fill="url(#acc)"/><rect x="124.0" y="480" width="177" height="32" rx="8" fill="#16294a"/><rect x="134.0" y="489" width="88" height="5" rx="2.5" fill="#5f78a3"/><rect x="134.0" y="499" width="53" height="4" rx="2" fill="#24406b"/><circle cx="287" cy="496" r="6" fill="url(#acc)"/><rect x="124.0" y="520" width="177" height="32" rx="8" fill="#16294a"/><rect x="134.0" y="529" width="88" height="5" rx="2.5" fill="#5f78a3"/><rect x="134.0" y="539" width="53" height="4" rx="2" fill="#24406b"/><circle cx="287" cy="536" r="6" fill="url(#acc)"/><text x="319.0" y="428" font-family="Inter,sans-serif" font-size="12" font-weight="600" fill="#9db4d8">Qualified</text><circle cx="486.0" cy="424" r="8" fill="#16294a"/><text x="486.0" y="428" font-family="Inter" font-size="9" fill="#9db4d8" text-anchor="middle">4</text><rect x="315.0" y="440" width="177" height="32" rx="8" fill="#16294a"/><rect x="325.0" y="449" width="88" height="5" rx="2.5" fill="#5f78a3"/><rect x="325.0" y="459" width="53" height="4" rx="2" fill="#24406b"/><circle cx="478" cy="456" r="6" fill="url(#acc)"/><rect x="315.0" y="480" width="177" height="32" rx="8" fill="#16294a"/><rect x="325.0" y="489" width="88" height="5" rx="2.5" fill="#5f78a3"/><rect x="325.0" y="499" width="53" height="4" rx="2" fill="#24406b"/><circle cx="478" cy="496" r="6" fill="url(#acc)"/><rect x="315.0" y="520" width="177" height="32" rx="8" fill="#16294a"/><rect x="325.0" y="529" width="88" height="5" rx="2.5" fill="#5f78a3"/><rect x="325.0" y="539" width="53" height="4" rx="2" fill="#24406b"/><circle cx="478" cy="536" r="6" fill="url(#acc)"/><text x="510.0" y="428" font-family="Inter,sans-serif" font-size="12" font-weight="600" fill="#9db4d8">Proposal</text><circle cx="677.0" cy="424" r="8" fill="#16294a"/><text x="677.0" y="428" font-family="Inter" font-size="9" fill="#9db4d8" text-anchor="middle">3</text><rect x="506.0" y="440" width="177" height="32" rx="8" fill="#16294a"/><rect x="516.0" y="449" width="88" height="5" rx="2.5" fill="#5f78a3"/><rect x="516.0" y="459" width="53" height="4" rx="2" fill="#24406b"/><circle cx="669" cy="456" r="6" fill="url(#acc)"/><rect x="506.0" y="480" width="177" height="32" rx="8" fill="#16294a"/><rect x="516.0" y="489" width="88" height="5" rx="2.5" fill="#5f78a3"/><rect x="516.0" y="499" width="53" height="4" rx="2" fill="#24406b"/><circle cx="669" cy="496" r="6" fill="url(#acc)"/><rect x="506.0" y="520" width="177" height="32" rx="8" fill="#16294a"/><rect x="516.0" y="529" width="88" height="5" rx="2.5" fill="#5f78a3"/><rect x="516.0" y="539" width="53" height="4" rx="2" fill="#24406b"/><circle cx="669" cy="536" r="6" fill="url(#acc)"/><text x="701.0" y="428" font-family="Inter,sans-serif" font-size="12" font-weight="600" fill="#9db4d8">Won</text><circle cx="868.0" cy="424" r="8" fill="#16294a"/><text x="868.0" y="428" font-family="Inter" font-size="9" fill="#9db4d8" text-anchor="middle">5</text><rect x="697.0" y="440" width="177" height="32" rx="8" fill="#16294a"/><rect x="707.0" y="449" width="88" height="5" rx="2.5" fill="#5f78a3"/><rect x="707.0" y="459" width="53" height="4" rx="2" fill="#24406b"/><circle cx="860" cy="456" r="6" fill="url(#acc)"/><rect x="697.0" y="480" width="177" height="32" rx="8" fill="#16294a"/><rect x="707.0" y="489" width="88" height="5" rx="2.5" fill="#5f78a3"/><rect x="707.0" y="499" width="53" height="4" rx="2" fill="#24406b"/><circle cx="860" cy="496" r="6" fill="url(#acc)"/><rect x="697.0" y="520" width="177" height="32" rx="8" fill="#16294a"/><rect x="707.0" y="529" width="88" height="5" rx="2.5" fill="#5f78a3"/><rect x="707.0" y="539" width="53" height="4" rx="2" fill="#24406b"/><circle cx="860" cy="536" r="6" fill="url(#acc)"/></g>
</svg>