<svg xmlns="http://www.w3.org/2000/svg" viewBox="0 0 1200 750" width="1200" height="750">
  
  <defs>
    <linearGradient id="bg" x1="0" y1="0" x2="1" y2="1">
      <stop offset="0" stop-color="#0a1524"/>
      <stop offset="1" stop-color="#0d1b2e"/>
    </linearGradient>
    <linearGradient id="acc" x1="0" y1="0" x2="1" y2="1">
      <stop offset="0" stop-color="#2563eb"/>
      <stop offset="1" stop-color="#22d3ee"/>
    </linearGradient>
    <linearGradient id="glass" x1="0" y1="0" x2="0" y2="1">
      <stop offset="0" stop-color="#ffffff" stop-opacity="0.09"/>
      <stop offset="1" stop-color="#ffffff" stop-opacity="0.02"/>
    </linearGradient>
    <radialGradient id="glow" cx="0.5" cy="0.5" r="0.5">
      <stop offset="0" stop-color="#2563eb" stop-opacity="0.55"/>
      <stop offset="1" stop-color="#2563eb" stop-opacity="0"/>
    </radialGradient>
    <filter id="soft" x="-20%" y="-20%" width="140%" height="140%">
      <feGaussianBlur stdDeviation="18"/>
    </filter>
    <pattern id="grid" width="34" height="34" patternUnits="userSpaceOnUse">
      <path d="M34 0H0V34" fill="none" stroke="#ffffff" stroke-opacity="0.035" stroke-width="1"/>
    </pattern>
  </defs>
  
  <rect width="1200" height="750" fill="url(#bg)"/>
  <rect width="1200" height="750" fill="url(#grid)"/>
  <ellipse cx="120" cy="90" rx="360" ry="300" fill="url(#glow)" filter="url(#soft)" opacity="0.9"/>
  <ellipse cx="1120" cy="720" rx="380" ry="300" fill="url(#glow)" filter="url(#soft)" opacity="0.6"/>
  <g transform="translate(100,64)">
    <rect x="0" y="0" width="1000" height="52" rx="16" fill="#16294a"/>
    <rect x="0" y="26" width="1000" height="26" fill="#16294a"/>
    <circle cx="30" cy="26" r="6" fill="#ff5f57"/>
    <circle cx="52" cy="26" r="6" fill="#febc2e"/>
    <circle cx="74" cy="26" r="6" fill="#28c840"/>
    <rect x="360" y="15" width="280" height="22" rx="11" fill="#0a1524" opacity="0.6"/>
    <text x="500" y="30" font-family="Inter,Segoe UI,sans-serif" font-size="12"
          fill="#5f78a3" text-anchor="middle">dotec.odoo · Integrations</text>
    <rect x="836" y="14" width="150" height="24" rx="12" fill="url(#acc)" opacity="0.9"/>
    <text x="911" y="30" font-family="Inter,sans-serif" font-size="11" font-weight="700"
          fill="#04122a" text-anchor="middle" letter-spacing="0.5">REST & ACCESS</text><rect x="0" y="70" width="88" height="480" rx="16" fill="#101f36"/><rect x="18" y="90" width="52" height="34" rx="10" fill="url(#acc)" opacity="1"/><rect x="30" y="101" width="28" height="4" rx="2" fill="#04122a" opacity="0.9"/><rect x="18" y="138" width="52" height="34" rx="10" fill="#16294a" opacity="0.8"/><rect x="30" y="149" width="28" height="4" rx="2" fill="#5f78a3" opacity="0.9"/><rect x="18" y="186" width="52" height="34" rx="10" fill="#16294a" opacity="0.8"/><rect x="30" y="197" width="28" height="4" rx="2" fill="#5f78a3" opacity="0.9"/><rect x="18" y="234" width="52" height="34" rx="10" fill="#16294a" opacity="0.8"/><rect x="30" y="245" width="28" height="4" rx="2" fill="#5f78a3" opacity="0.9"/><rect x="18" y="282" width="52" height="34" rx="10" fill="#16294a" opacity="0.8"/><rect x="30" y="293" width="28" height="4" rx="2" fill="#5f78a3" opacity="0.9"/><rect x="18" y="330" width="52" height="34" rx="10" fill="#16294a" opacity="0.8"/><rect x="30" y="341" width="28" height="4" rx="2" fill="#5f78a3" opacity="0.9"/>
    <rect x="108" y="84" width="196" height="96" rx="14" fill="url(#glass)" stroke="#24406b" stroke-width="1"/>
    <text x="126" y="118" font-family="Space Grotesk,Inter,sans-serif" font-size="30" font-weight="700" fill="#eaf1ff">REST</text>
    <text x="126" y="138" font-family="Inter,sans-serif" font-size="12" fill="#9db4d8">APIs</text>
    <rect x="126" y="149.65140060726483" width="10" height="4.348599392735171" rx="3" fill="url(#acc)" opacity="0.4067038344756764"/><rect x="140" y="145.7804847251148" width="10" height="8.219515274885195" rx="3" fill="url(#acc)" opacity="0.481144524517023"/><rect x="154" y="139.7462274666408" width="10" height="14.253772533359209" rx="3" fill="url(#acc)" opacity="0.597187933333831"/><rect x="168" y="146.23703792994624" width="10" height="7.762962070053762" rx="3" fill="url(#acc)" opacity="0.4723646551933416"/><rect x="182" y="128.50339384703346" width="10" height="25.49660615296654" rx="3" fill="url(#acc)" opacity="0.8133962721724335"/><rect x="196" y="148.1715260535267" width="10" height="5.828473946473295" rx="3" fill="url(#acc)" opacity="0.43516296050910186"/>
    <rect x="320" y="84" width="196" height="96" rx="14" fill="url(#glass)" stroke="#24406b" stroke-width="1"/>
    <text x="338" y="118" font-family="Space Grotesk,Inter,sans-serif" font-size="30" font-weight="700" fill="#eaf1ff">Cron</text>
    <text x="338" y="138" font-family="Inter,sans-serif" font-size="12" fill="#9db4d8">Jobs</text>
    <rect x="338" y="126.67880993057557" width="10" height="27.321190069424425" rx="3" fill="url(#acc)" opacity="0.8484844244120082"/><rect x="352" y="133.70702676784035" width="10" height="20.29297323215966" rx="3" fill="url(#acc)" opacity="0.7133264083107627"/><rect x="366" y="148.88210146230495" width="10" height="5.117898537695043" rx="3" fill="url(#acc)" opacity="0.4214980488018278"/><rect x="380" y="139.0241461343482" width="10" height="14.9758538656518" rx="3" fill="url(#acc)" opacity="0.6110741128009962"/><rect x="394" y="138.27919586323466" width="10" height="15.720804136765327" rx="3" fill="url(#acc)" opacity="0.6254000795531793"/><rect x="408" y="136.36908496197503" width="10" height="17.630915038024973" rx="3" fill="url(#acc)" opacity="0.6621329815004803"/>
    <rect x="532" y="84" width="196" height="96" rx="14" fill="url(#glass)" stroke="#24406b" stroke-width="1"/>
    <text x="550" y="118" font-family="Space Grotesk,Inter,sans-serif" font-size="30" font-weight="700" fill="#eaf1ff">Security</text>
    <text x="550" y="138" font-family="Inter,sans-serif" font-size="12" fill="#9db4d8">Groups</text>
    <rect x="550" y="124.66337223497216" width="10" height="29.336627765027846" rx="3" fill="url(#acc)" opacity="0.8872428416351509"/><rect x="564" y="124.54459082260985" width="10" height="29.45540917739016" rx="3" fill="url(#acc)" opacity="0.8895270995651954"/><rect x="578" y="127.8072857404233" width="10" height="26.192714259576704" rx="3" fill="url(#acc)" opacity="0.8267829665303212"/><rect x="592" y="146.59437475782957" width="10" height="7.405625242170425" rx="3" fill="url(#acc)" opacity="0.46549279311866204"/><rect x="606" y="138.16228706761618" width="10" height="15.837712932383834" rx="3" fill="url(#acc)" opacity="0.6276483256227661"/><rect x="620" y="136.57088866852848" width="10" height="17.429111331471532" rx="3" fill="url(#acc)" opacity="0.6582521409898372"/>
    <rect x="744" y="84" width="196" height="96" rx="14" fill="url(#glass)" stroke="#24406b" stroke-width="1"/>
    <text x="762" y="118" font-family="Space Grotesk,Inter,sans-serif" font-size="30" font-weight="700" fill="#eaf1ff">Audit</text>
    <text x="762" y="138" font-family="Inter,sans-serif" font-size="12" fill="#9db4d8">Log</text>
    <rect x="762" y="142.39637118267075" width="10" height="11.603628817329266" rx="3" fill="url(#acc)" opacity="0.546223631102486"/><rect x="776" y="141.1233988605247" width="10" height="12.876601139475286" rx="3" fill="url(#acc)" opacity="0.5707038680668324"/><rect x="790" y="146.61224761463652" width="10" height="7.387752385363481" rx="3" fill="url(#acc)" opacity="0.4651490843339131"/><rect x="804" y="135.2800359401732" width="10" height="18.719964059826786" rx="3" fill="url(#acc)" opacity="0.6830762319197459"/><rect x="818" y="132.25737660796494" width="10" height="21.742623392035057" rx="3" fill="url(#acc)" opacity="0.7412042960006742"/><rect x="832" y="125.41791713509821" width="10" height="28.582082864901786" rx="3" fill="url(#acc)" opacity="0.8727323627865728"/>
    <rect x="108" y="196" width="470" height="190" rx="16" fill="url(#glass)" stroke="#24406b" stroke-width="1"/>
    <text x="128" y="226" font-family="Inter,sans-serif" font-size="14" font-weight="600" fill="#eaf1ff">Pipeline value / month</text>
    <polygon points="128,362 128,362 189,334 251,348 312,306 374,320 435,264 497,278 558,236 558,362" fill="url(#acc)" opacity="0.14"/>
    <polyline points="128,362 189,334 251,348 312,306 374,320 435,264 497,278 558,236" fill="none" stroke="url(#acc)" stroke-width="3" stroke-linecap="round" stroke-linejoin="round"/>
    <circle cx="128" cy="362" r="4" fill="#2563eb"/><circle cx="189" cy="334" r="4" fill="#2563eb"/><circle cx="251" cy="348" r="4" fill="#2563eb"/><circle cx="312" cy="306" r="4" fill="#2563eb"/><circle cx="374" cy="320" r="4" fill="#2563eb"/><circle cx="435" cy="264" r="4" fill="#2563eb"/><circle cx="497" cy="278" r="4" fill="#2563eb"/><circle cx="558" cy="236" r="4" fill="#2563eb"/><circle cx="760" cy="292" r="66" fill="none" stroke="#16294a" stroke-width="18"/><path d="M 760.0 226.0 A 66 66 0 1 1 751.7 357.5" fill="none" stroke="#2563eb" stroke-width="18" stroke-linecap="round"/><path d="M 751.7 357.5 A 66 66 0 0 1 697.2 271.6" fill="none" stroke="#22d3ee" stroke-width="18" stroke-linecap="round"/><path d="M 697.2 271.6 A 66 66 0 0 1 760.0 226.0" fill="none" stroke="#8b5cf6" stroke-width="18" stroke-linecap="round"/><text x="760" y="298" font-family="Space Grotesk,Inter" font-size="26" font-weight="700" fill="#eaf1ff" text-anchor="middle">100</text><rect x="620" y="196" width="272" height="190" rx="16" fill="url(#glass)" stroke="#24406b" stroke-width="1"/><text x="640" y="226" font-family="Inter" font-size="14" font-weight="600" fill="#eaf1ff">Distribution</text><rect x="108" y="400" width="784" height="150" rx="16" fill="url(#glass)" stroke="#24406b" stroke-width="1"/><text x="128.0" y="428" font-family="Inter,sans-serif" font-size="12" font-weight="600" fill="#9db4d8">New</text><circle cx="295.0" cy="424" r="8" fill="#16294a"/><text x="295.0" y="428" font-family="Inter" font-size="9" fill="#9db4d8" text-anchor="middle">6</text><rect x="124.0" y="440" width="177" height="32" rx="8" fill="#16294a"/><rect x="134.0" y="449" width="88" height="5" rx="2.5" fill="#5f78a3"/><rect x="134.0" y="459" width="53" height="4" rx="2" fill="#24406b"/><circle cx="287" cy="456" r="6" fill="url(#acc)"/><rect x="124.0" y="480" width="177" height="32" rx="8" fill="#16294a"/><rect x="134.0" y="489" width="88" height="5" rx="2.5" fill="#5f78a3"/><rect x="134.0" y="499" width="53" height="4" rx="2" fill="#24406b"/><circle cx="287" cy="496" r="6" fill="url(#acc)"/><rect x="124.0" y="520" width="177" height="32" rx="8" fill="#16294a"/><rect x="134.0" y="529" width="88" height="5" rx="2.5" fill="#5f78a3"/><rect x="134.0" y="539" width="53" height="4" rx="2" fill="#24406b"/><circle cx="287" cy="536" r="6" fill="url(#acc)"/><text x="319.0" y="428" font-family="Inter,sans-serif" font-size="12" font-weight="600" fill="#9db4d8">Qualified</text><circle cx="486.0" cy="424" r="8" fill="#16294a"/><text x="486.0" y="428" font-family="Inter" font-size="9" fill="#9db4d8" text-anchor="middle">4</text><rect x="315.0" y="440" width="177" height="32" rx="8" fill="#16294a"/><rect x="325.0" y="449" width="88" height="5" rx="2.5" fill="#5f78a3"/><rect x="325.0" y="459" width="53" height="4" rx="2" fill="#24406b"/><circle cx="478" cy="456" r="6" fill="url(#acc)"/><rect x="315.0" y="480" width="177" height="32" rx="8" fill="#16294a"/><rect x="325.0" y="489" width="88" height="5" rx="2.5" fill="#5f78a3"/><rect x="325.0" y="499" width="53" height="4" rx="2" fill="#24406b"/><circle cx="478" cy="496" r="6" fill="url(#acc)"/><rect x="315.0" y="520" width="177" height="32" rx="8" fill="#16294a"/><rect x="325.0" y="529" width="88" height="5" rx="2.5" fill="#5f78a3"/><rect x="325.0" y="539" width="53" height="4" rx="2" fill="#24406b"/><circle cx="478" cy="536" r="6" fill="url(#acc)"/><text x="510.0" y="428" font-family="Inter,sans-serif" font-size="12" font-weight="600" fill="#9db4d8">Proposal</text><circle cx="677.0" cy="424" r="8" fill="#16294a"/><text x="677.0" y="428" font-family="Inter" font-size="9" fill="#9db4d8" text-anchor="middle">3</text><rect x="506.0" y="440" width="177" height="32" rx="8" fill="#16294a"/><rect x="516.0" y="449" width="88" height="5" rx="2.5" fill="#5f78a3"/><rect x="516.0" y="459" width="53" height="4" rx="2" fill="#24406b"/><circle cx="669" cy="456" r="6" fill="url(#acc)"/><rect x="506.0" y="480" width="177" height="32" rx="8" fill="#16294a"/><rect x="516.0" y="489" width="88" height="5" rx="2.5" fill="#5f78a3"/><rect x="516.0" y="499" width="53" height="4" rx="2" fill="#24406b"/><circle cx="669" cy="496" r="6" fill="url(#acc)"/><rect x="506.0" y="520" width="177" height="32" rx="8" fill="#16294a"/><rect x="516.0" y="529" width="88" height="5" rx="2.5" fill="#5f78a3"/><rect x="516.0" y="539" width="53" height="4" rx="2" fill="#24406b"/><circle cx="669" cy="536" r="6" fill="url(#acc)"/><text x="701.0" y="428" font-family="Inter,sans-serif" font-size="12" font-weight="600" fill="#9db4d8">Won</text><circle cx="868.0" cy="424" r="8" fill="#16294a"/><text x="868.0" y="428" font-family="Inter" font-size="9" fill="#9db4d8" text-anchor="middle">5</text><rect x="697.0" y="440" width="177" height="32" rx="8" fill="#16294a"/><rect x="707.0" y="449" width="88" height="5" rx="2.5" fill="#5f78a3"/><rect x="707.0" y="459" width="53" height="4" rx="2" fill="#24406b"/><circle cx="860" cy="456" r="6" fill="url(#acc)"/><rect x="697.0" y="480" width="177" height="32" rx="8" fill="#16294a"/><rect x="707.0" y="489" width="88" height="5" rx="2.5" fill="#5f78a3"/><rect x="707.0" y="499" width="53" height="4" rx="2" fill="#24406b"/><circle cx="860" cy="496" r="6" fill="url(#acc)"/><rect x="697.0" y="520" width="177" height="32" rx="8" fill="#16294a"/><rect x="707.0" y="529" width="88" height="5" rx="2.5" fill="#5f78a3"/><rect x="707.0" y="539" width="53" height="4" rx="2" fill="#24406b"/><circle cx="860" cy="536" r="6" fill="url(#acc)"/></g>
</svg>