<svg xmlns="http://www.w3.org/2000/svg" viewBox="0 0 1200 750" width="1200" height="750">
  
  <defs>
    <linearGradient id="bg" x1="0" y1="0" x2="1" y2="1">
      <stop offset="0" stop-color="#0a1524"/>
      <stop offset="1" stop-color="#0d1b2e"/>
    </linearGradient>
    <linearGradient id="acc" x1="0" y1="0" x2="1" y2="1">
      <stop offset="0" stop-color="#16a34a"/>
      <stop offset="1" stop-color="#22c55e"/>
    </linearGradient>
    <linearGradient id="glass" x1="0" y1="0" x2="0" y2="1">
      <stop offset="0" stop-color="#ffffff" stop-opacity="0.09"/>
      <stop offset="1" stop-color="#ffffff" stop-opacity="0.02"/>
    </linearGradient>
    <radialGradient id="glow" cx="0.5" cy="0.5" r="0.5">
      <stop offset="0" stop-color="#16a34a" stop-opacity="0.55"/>
      <stop offset="1" stop-color="#16a34a" stop-opacity="0"/>
    </radialGradient>
    <filter id="soft" x="-20%" y="-20%" width="140%" height="140%">
      <feGaussianBlur stdDeviation="18"/>
    </filter>
    <pattern id="grid" width="34" height="34" patternUnits="userSpaceOnUse">
      <path d="M34 0H0V34" fill="none" stroke="#ffffff" stroke-opacity="0.035" stroke-width="1"/>
    </pattern>
  </defs>
  
  <rect width="1200" height="750" fill="url(#bg)"/>
  <rect width="1200" height="750" fill="url(#grid)"/>
  <ellipse cx="120" cy="90" rx="360" ry="300" fill="url(#glow)" filter="url(#soft)" opacity="0.9"/>
  <ellipse cx="1120" cy="720" rx="380" ry="300" fill="url(#glow)" filter="url(#soft)" opacity="0.6"/>
  <g transform="translate(100,64)">
    <rect x="0" y="0" width="1000" height="52" rx="16" fill="#16294a"/>
    <rect x="0" y="26" width="1000" height="26" fill="#16294a"/>
    <circle cx="30" cy="26" r="6" fill="#ff5f57"/>
    <circle cx="52" cy="26" r="6" fill="#febc2e"/>
    <circle cx="74" cy="26" r="6" fill="#28c840"/>
    <rect x="360" y="15" width="280" height="22" rx="11" fill="#0a1524" opacity="0.6"/>
    <text x="500" y="30" font-family="Inter,Segoe UI,sans-serif" font-size="12"
          fill="#5f78a3" text-anchor="middle">ejad.odoo · Multi-Client</text>
    <rect x="836" y="14" width="150" height="24" rx="12" fill="url(#acc)" opacity="0.9"/>
    <text x="911" y="30" font-family="Inter,sans-serif" font-size="11" font-weight="700"
          fill="#04122a" text-anchor="middle" letter-spacing="0.5">ODOO SILVER PARTNER</text><rect x="0" y="70" width="88" height="480" rx="16" fill="#101f36"/><rect x="18" y="90" width="52" height="34" rx="10" fill="url(#acc)" opacity="1"/><rect x="30" y="101" width="28" height="4" rx="2" fill="#04122a" opacity="0.9"/><rect x="18" y="138" width="52" height="34" rx="10" fill="#16294a" opacity="0.8"/><rect x="30" y="149" width="28" height="4" rx="2" fill="#5f78a3" opacity="0.9"/><rect x="18" y="186" width="52" height="34" rx="10" fill="#16294a" opacity="0.8"/><rect x="30" y="197" width="28" height="4" rx="2" fill="#5f78a3" opacity="0.9"/><rect x="18" y="234" width="52" height="34" rx="10" fill="#16294a" opacity="0.8"/><rect x="30" y="245" width="28" height="4" rx="2" fill="#5f78a3" opacity="0.9"/><rect x="18" y="282" width="52" height="34" rx="10" fill="#16294a" opacity="0.8"/><rect x="30" y="293" width="28" height="4" rx="2" fill="#5f78a3" opacity="0.9"/><rect x="18" y="330" width="52" height="34" rx="10" fill="#16294a" opacity="0.8"/><rect x="30" y="341" width="28" height="4" rx="2" fill="#5f78a3" opacity="0.9"/>
    <rect x="108" y="84" width="196" height="96" rx="14" fill="url(#glass)" stroke="#24406b" stroke-width="1"/>
    <text x="126" y="118" font-family="Space Grotesk,Inter,sans-serif" font-size="30" font-weight="700" fill="#eaf1ff">14</text>
    <text x="126" y="138" font-family="Inter,sans-serif" font-size="12" fill="#9db4d8">Clients</text>
    <rect x="126" y="125.66847048338401" width="10" height="28.331529516615984" rx="3" fill="url(#acc)" opacity="0.8679140291656919"/><rect x="140" y="139.04844287200487" width="10" height="14.95155712799512" rx="3" fill="url(#acc)" opacity="0.61060686784606"/><rect x="154" y="149.62317818412774" width="10" height="4.376821815872263" rx="3" fill="url(#acc)" opacity="0.4072465733821589"/><rect x="168" y="131.10448285241367" width="10" height="22.895517147586325" rx="3" fill="url(#acc)" opacity="0.7633753297612755"/><rect x="182" y="148.09393236691844" width="10" height="5.906067633081566" rx="3" fill="url(#acc)" opacity="0.43665514679003015"/><rect x="196" y="139.3952440677001" width="10" height="14.604755932299899" rx="3" fill="url(#acc)" opacity="0.6039376140826904"/>
    <rect x="320" y="84" width="196" height="96" rx="14" fill="url(#glass)" stroke="#24406b" stroke-width="1"/>
    <text x="338" y="118" font-family="Space Grotesk,Inter,sans-serif" font-size="30" font-weight="700" fill="#eaf1ff">60+</text>
    <text x="338" y="138" font-family="Inter,sans-serif" font-size="12" fill="#9db4d8">Modules</text>
    <rect x="338" y="135.0112471252925" width="10" height="18.98875287470751" rx="3" fill="url(#acc)" opacity="0.6882452475905291"/><rect x="352" y="145.09700800381597" width="10" height="8.902991996184017" rx="3" fill="url(#acc)" opacity="0.49428830761892345"/><rect x="366" y="129.24521448411707" width="10" height="24.754785515882915" rx="3" fill="url(#acc)" opacity="0.799130490690056"/><rect x="380" y="146.31457797292654" width="10" height="7.685422027073451" rx="3" fill="url(#acc)" opacity="0.4708735005206433"/><rect x="394" y="128.93290876057907" width="10" height="25.06709123942092" rx="3" fill="url(#acc)" opacity="0.8051363699888638"/><rect x="408" y="129.12478379485745" width="10" height="24.875216205142546" rx="3" fill="url(#acc)" opacity="0.8014464654835105"/>
    <rect x="532" y="84" width="196" height="96" rx="14" fill="url(#glass)" stroke="#24406b" stroke-width="1"/>
    <text x="550" y="118" font-family="Space Grotesk,Inter,sans-serif" font-size="30" font-weight="700" fill="#eaf1ff">QWeb</text>
    <text x="550" y="138" font-family="Inter,sans-serif" font-size="12" fill="#9db4d8">Reports</text>
    <rect x="550" y="140.65303199081933" width="10" height="13.346968009180657" rx="3" fill="url(#acc)" opacity="0.5797493847919357"/><rect x="564" y="126.1751830276825" width="10" height="27.824816972317503" rx="3" fill="url(#acc)" opacity="0.858169557159952"/><rect x="578" y="149.83973368258845" width="10" height="4.1602663174115415" rx="3" fill="url(#acc)" opacity="0.4030820445656066"/><rect x="592" y="133.36852976585558" width="10" height="20.63147023414441" rx="3" fill="url(#acc)" opacity="0.7198359660412387"/><rect x="606" y="146.34710023385892" width="10" height="7.6528997661410685" rx="3" fill="url(#acc)" opacity="0.4702480724257898"/><rect x="620" y="135.734727379552" width="10" height="18.265272620448" rx="3" fill="url(#acc)" opacity="0.6743321657778462"/>
    <rect x="744" y="84" width="196" height="96" rx="14" fill="url(#glass)" stroke="#24406b" stroke-width="1"/>
    <text x="762" y="118" font-family="Space Grotesk,Inter,sans-serif" font-size="30" font-weight="700" fill="#eaf1ff">99.9%</text>
    <text x="762" y="138" font-family="Inter,sans-serif" font-size="12" fill="#9db4d8">Uptime</text>
    <rect x="762" y="127.53823974408971" width="10" height="26.461760255910296" rx="3" fill="url(#acc)" opacity="0.8319569279982749"/><rect x="776" y="141.56170705934346" width="10" height="12.438292940656545" rx="3" fill="url(#acc)" opacity="0.5622748642433951"/><rect x="790" y="149.11704201083043" width="10" height="4.882957989169572" rx="3" fill="url(#acc)" opacity="0.4169799613301841"/><rect x="804" y="133.5427049867447" width="10" height="20.4572950132553" rx="3" fill="url(#acc)" opacity="0.716486442562602"/><rect x="818" y="140.25770158588418" width="10" height="13.742298414115819" rx="3" fill="url(#acc)" opacity="0.5873518925791503"/><rect x="832" y="143.8201495931354" width="10" height="10.179850406864599" rx="3" fill="url(#acc)" opacity="0.5188432770550885"/>
    <rect x="108" y="196" width="470" height="190" rx="16" fill="url(#glass)" stroke="#24406b" stroke-width="1"/>
    <text x="128" y="226" font-family="Inter,sans-serif" font-size="14" font-weight="600" fill="#eaf1ff">Revenue by stage</text>
    <line x1="126" y1="266" x2="560" y2="266" stroke="#24406b" stroke-opacity="0.5" stroke-width="1"/><line x1="126" y1="296" x2="560" y2="296" stroke="#24406b" stroke-opacity="0.5" stroke-width="1"/><line x1="126" y1="326" x2="560" y2="326" stroke="#24406b" stroke-opacity="0.5" stroke-width="1"/><rect x="128" y="297" width="34" height="65" rx="5" fill="url(#acc)"/><rect x="195" y="264" width="34" height="98" rx="5" fill="url(#acc)"/><rect x="262" y="308" width="34" height="54" rx="5" fill="url(#acc)"/><rect x="329" y="243" width="34" height="119" rx="5" fill="url(#acc)"/><rect x="397" y="275" width="34" height="87" rx="5" fill="url(#acc)"/><rect x="464" y="232" width="34" height="130" rx="5" fill="url(#acc)"/><rect x="531" y="286" width="34" height="76" rx="5" fill="url(#acc)"/><circle cx="760" cy="292" r="66" fill="none" stroke="#16294a" stroke-width="18"/><path d="M 760.0 226.0 A 66 66 0 1 1 751.7 357.5" fill="none" stroke="#16a34a" stroke-width="18" stroke-linecap="round"/><path d="M 751.7 357.5 A 66 66 0 0 1 697.2 271.6" fill="none" stroke="#22d3ee" stroke-width="18" stroke-linecap="round"/><path d="M 697.2 271.6 A 66 66 0 0 1 760.0 226.0" fill="none" stroke="#8b5cf6" stroke-width="18" stroke-linecap="round"/><text x="760" y="298" font-family="Space Grotesk,Inter" font-size="26" font-weight="700" fill="#eaf1ff" text-anchor="middle">100</text><rect x="620" y="196" width="272" height="190" rx="16" fill="url(#glass)" stroke="#24406b" stroke-width="1"/><text x="640" y="226" font-family="Inter" font-size="14" font-weight="600" fill="#eaf1ff">Distribution</text><rect x="108" y="400" width="784" height="150" rx="16" fill="url(#glass)" stroke="#24406b" stroke-width="1"/><text x="128.0" y="428" font-family="Inter,sans-serif" font-size="12" font-weight="600" fill="#9db4d8">New</text><circle cx="295.0" cy="424" r="8" fill="#16294a"/><text x="295.0" y="428" font-family="Inter" font-size="9" fill="#9db4d8" text-anchor="middle">6</text><rect x="124.0" y="440" width="177" height="32" rx="8" fill="#16294a"/><rect x="134.0" y="449" width="88" height="5" rx="2.5" fill="#5f78a3"/><rect x="134.0" y="459" width="53" height="4" rx="2" fill="#24406b"/><circle cx="287" cy="456" r="6" fill="url(#acc)"/><rect x="124.0" y="480" width="177" height="32" rx="8" fill="#16294a"/><rect x="134.0" y="489" width="88" height="5" rx="2.5" fill="#5f78a3"/><rect x="134.0" y="499" width="53" height="4" rx="2" fill="#24406b"/><circle cx="287" cy="496" r="6" fill="url(#acc)"/><rect x="124.0" y="520" width="177" height="32" rx="8" fill="#16294a"/><rect x="134.0" y="529" width="88" height="5" rx="2.5" fill="#5f78a3"/><rect x="134.0" y="539" width="53" height="4" rx="2" fill="#24406b"/><circle cx="287" cy="536" r="6" fill="url(#acc)"/><text x="319.0" y="428" font-family="Inter,sans-serif" font-size="12" font-weight="600" fill="#9db4d8">Qualified</text><circle cx="486.0" cy="424" r="8" fill="#16294a"/><text x="486.0" y="428" font-family="Inter" font-size="9" fill="#9db4d8" text-anchor="middle">4</text><rect x="315.0" y="440" width="177" height="32" rx="8" fill="#16294a"/><rect x="325.0" y="449" width="88" height="5" rx="2.5" fill="#5f78a3"/><rect x="325.0" y="459" width="53" height="4" rx="2" fill="#24406b"/><circle cx="478" cy="456" r="6" fill="url(#acc)"/><rect x="315.0" y="480" width="177" height="32" rx="8" fill="#16294a"/><rect x="325.0" y="489" width="88" height="5" rx="2.5" fill="#5f78a3"/><rect x="325.0" y="499" width="53" height="4" rx="2" fill="#24406b"/><circle cx="478" cy="496" r="6" fill="url(#acc)"/><rect x="315.0" y="520" width="177" height="32" rx="8" fill="#16294a"/><rect x="325.0" y="529" width="88" height="5" rx="2.5" fill="#5f78a3"/><rect x="325.0" y="539" width="53" height="4" rx="2" fill="#24406b"/><circle cx="478" cy="536" r="6" fill="url(#acc)"/><text x="510.0" y="428" font-family="Inter,sans-serif" font-size="12" font-weight="600" fill="#9db4d8">Proposal</text><circle cx="677.0" cy="424" r="8" fill="#16294a"/><text x="677.0" y="428" font-family="Inter" font-size="9" fill="#9db4d8" text-anchor="middle">3</text><rect x="506.0" y="440" width="177" height="32" rx="8" fill="#16294a"/><rect x="516.0" y="449" width="88" height="5" rx="2.5" fill="#5f78a3"/><rect x="516.0" y="459" width="53" height="4" rx="2" fill="#24406b"/><circle cx="669" cy="456" r="6" fill="url(#acc)"/><rect x="506.0" y="480" width="177" height="32" rx="8" fill="#16294a"/><rect x="516.0" y="489" width="88" height="5" rx="2.5" fill="#5f78a3"/><rect x="516.0" y="499" width="53" height="4" rx="2" fill="#24406b"/><circle cx="669" cy="496" r="6" fill="url(#acc)"/><rect x="506.0" y="520" width="177" height="32" rx="8" fill="#16294a"/><rect x="516.0" y="529" width="88" height="5" rx="2.5" fill="#5f78a3"/><rect x="516.0" y="539" width="53" height="4" rx="2" fill="#24406b"/><circle cx="669" cy="536" r="6" fill="url(#acc)"/><text x="701.0" y="428" font-family="Inter,sans-serif" font-size="12" font-weight="600" fill="#9db4d8">Won</text><circle cx="868.0" cy="424" r="8" fill="#16294a"/><text x="868.0" y="428" font-family="Inter" font-size="9" fill="#9db4d8" text-anchor="middle">5</text><rect x="697.0" y="440" width="177" height="32" rx="8" fill="#16294a"/><rect x="707.0" y="449" width="88" height="5" rx="2.5" fill="#5f78a3"/><rect x="707.0" y="459" width="53" height="4" rx="2" fill="#24406b"/><circle cx="860" cy="456" r="6" fill="url(#acc)"/><rect x="697.0" y="480" width="177" height="32" rx="8" fill="#16294a"/><rect x="707.0" y="489" width="88" height="5" rx="2.5" fill="#5f78a3"/><rect x="707.0" y="499" width="53" height="4" rx="2" fill="#24406b"/><circle cx="860" cy="496" r="6" fill="url(#acc)"/><rect x="697.0" y="520" width="177" height="32" rx="8" fill="#16294a"/><rect x="707.0" y="529" width="88" height="5" rx="2.5" fill="#5f78a3"/><rect x="707.0" y="539" width="53" height="4" rx="2" fill="#24406b"/><circle cx="860" cy="536" r="6" fill="url(#acc)"/></g>
</svg>