<svg xmlns="http://www.w3.org/2000/svg" viewBox="0 0 1200 750" width="1200" height="750">
  
  <defs>
    <linearGradient id="bg" x1="0" y1="0" x2="1" y2="1">
      <stop offset="0" stop-color="#1b1319"/>
      <stop offset="1" stop-color="#241a22"/>
    </linearGradient>
    <linearGradient id="acc" x1="0" y1="0" x2="1" y2="1">
      <stop offset="0" stop-color="#836773"/>
      <stop offset="1" stop-color="#836773"/>
    </linearGradient>
    <linearGradient id="glass" x1="0" y1="0" x2="0" y2="1">
      <stop offset="0" stop-color="#ffffff" stop-opacity="0.09"/>
      <stop offset="1" stop-color="#ffffff" stop-opacity="0.02"/>
    </linearGradient>
    <radialGradient id="glow" cx="0.5" cy="0.5" r="0.5">
      <stop offset="0" stop-color="#836773" stop-opacity="0.55"/>
      <stop offset="1" stop-color="#836773" stop-opacity="0"/>
    </radialGradient>
    <filter id="soft" x="-20%" y="-20%" width="140%" height="140%">
      <feGaussianBlur stdDeviation="18"/>
    </filter>
    <pattern id="grid" width="34" height="34" patternUnits="userSpaceOnUse">
      <path d="M34 0H0V34" fill="none" stroke="#ffffff" stroke-opacity="0.035" stroke-width="1"/>
    </pattern>
  </defs>
  
  <rect width="1200" height="750" fill="url(#bg)"/>
  <rect width="1200" height="750" fill="url(#grid)"/>
  <ellipse cx="120" cy="90" rx="360" ry="300" fill="url(#glow)" filter="url(#soft)" opacity="0.9"/>
  <ellipse cx="1120" cy="720" rx="380" ry="300" fill="url(#glow)" filter="url(#soft)" opacity="0.6"/>
  <g transform="translate(100,64)">
    <rect x="0" y="0" width="1000" height="52" rx="16" fill="#3a2a35"/>
    <rect x="0" y="26" width="1000" height="26" fill="#3a2a35"/>
    <circle cx="30" cy="26" r="6" fill="#ff5f57"/>
    <circle cx="52" cy="26" r="6" fill="#febc2e"/>
    <circle cx="74" cy="26" r="6" fill="#28c840"/>
    <rect x="360" y="15" width="280" height="22" rx="11" fill="#1b1319" opacity="0.6"/>
    <text x="500" y="30" font-family="Inter,Segoe UI,sans-serif" font-size="12"
          fill="#a8939e" text-anchor="middle">ministry-of-media · VRO</text>
    <rect x="834" y="14" width="152" height="24" rx="12" fill="url(#acc)" opacity="0.92"/>
    <text x="910.0" y="30" font-family="Inter,sans-serif" font-size="11" font-weight="700"
          fill="#140d13" text-anchor="middle" letter-spacing="0.5">GOVERNMENT · MEDIA</text><rect x="0" y="70" width="88" height="480" rx="16" fill="#2e2029"/><rect x="18" y="90" width="52" height="34" rx="10" fill="url(#acc)" opacity="1"/><rect x="30" y="101" width="28" height="4" rx="2" fill="#140d13" opacity="0.9"/><rect x="18" y="138" width="52" height="34" rx="10" fill="#3a2a35" opacity="0.8"/><rect x="30" y="149" width="28" height="4" rx="2" fill="#a8939e" opacity="0.9"/><rect x="18" y="186" width="52" height="34" rx="10" fill="#3a2a35" opacity="0.8"/><rect x="30" y="197" width="28" height="4" rx="2" fill="#a8939e" opacity="0.9"/><rect x="18" y="234" width="52" height="34" rx="10" fill="#3a2a35" opacity="0.8"/><rect x="30" y="245" width="28" height="4" rx="2" fill="#a8939e" opacity="0.9"/><rect x="18" y="282" width="52" height="34" rx="10" fill="#3a2a35" opacity="0.8"/><rect x="30" y="293" width="28" height="4" rx="2" fill="#a8939e" opacity="0.9"/><rect x="18" y="330" width="52" height="34" rx="10" fill="#3a2a35" opacity="0.8"/><rect x="30" y="341" width="28" height="4" rx="2" fill="#a8939e" opacity="0.9"/>
    <rect x="108" y="84" width="196" height="96" rx="14" fill="url(#glass)" stroke="#4a3542" stroke-width="1"/>
    <text x="126" y="108" font-family="Inter,sans-serif" font-size="10.5" font-weight="700"
          letter-spacing="1.1" fill="#a8939e">LICENSING DIGITAL</text>
    <rect x="126" y="118" width="106" height="15" rx="7" fill="#ddd0d4" opacity="0.55"/>
    <rect x="126" y="159.7298596267113" width="10" height="8.270140373288715" rx="3" fill="url(#acc)" opacity="0.46"/><rect x="140" y="158.4280794448371" width="10" height="9.571920555162892" rx="3" fill="url(#acc)" opacity="0.49"/><rect x="154" y="162.63645655939575" width="10" height="5.3635434406042375" rx="3" fill="url(#acc)" opacity="0.38"/><rect x="168" y="144.35704736024127" width="10" height="23.642952639758718" rx="3" fill="url(#acc)" opacity="0.84"/><rect x="182" y="158.8419375681849" width="10" height="9.158062431815093" rx="3" fill="url(#acc)" opacity="0.48"/><rect x="196" y="159.4383577287741" width="10" height="8.561642271225903" rx="3" fill="url(#acc)" opacity="0.46"/>
    <rect x="320" y="84" width="196" height="96" rx="14" fill="url(#glass)" stroke="#4a3542" stroke-width="1"/>
    <text x="338" y="108" font-family="Inter,sans-serif" font-size="10.5" font-weight="700"
          letter-spacing="1.1" fill="#a8939e">APPROVALS WORKFLOW</text>
    <rect x="338" y="118" width="72" height="15" rx="7" fill="#ddd0d4" opacity="0.55"/>
    <rect x="338" y="144.0866685684768" width="10" height="23.913331431523194" rx="3" fill="url(#acc)" opacity="0.85"/><rect x="352" y="157.6898533389131" width="10" height="10.310146661086883" rx="3" fill="url(#acc)" opacity="0.51"/><rect x="366" y="158.51685711197374" width="10" height="9.483142888026265" rx="3" fill="url(#acc)" opacity="0.49"/><rect x="380" y="149.774003769099" width="10" height="18.225996230901004" rx="3" fill="url(#acc)" opacity="0.71"/><rect x="394" y="144.28709028381934" width="10" height="23.712909716180672" rx="3" fill="url(#acc)" opacity="0.84"/><rect x="408" y="159.76864885903615" width="10" height="8.231351140963861" rx="3" fill="url(#acc)" opacity="0.46"/>
    <rect x="532" y="84" width="196" height="96" rx="14" fill="url(#glass)" stroke="#4a3542" stroke-width="1"/>
    <text x="550" y="108" font-family="Inter,sans-serif" font-size="10.5" font-weight="700"
          letter-spacing="1.1" fill="#a8939e">ROLES RBAC</text>
    <rect x="550" y="118" width="92" height="15" rx="7" fill="#ddd0d4" opacity="0.55"/>
    <rect x="550" y="144.1502794168777" width="10" height="23.849720583122295" rx="3" fill="url(#acc)" opacity="0.85"/><rect x="564" y="158.45254668342557" width="10" height="9.547453316574433" rx="3" fill="url(#acc)" opacity="0.49"/><rect x="578" y="157.1117693247844" width="10" height="10.888230675215596" rx="3" fill="url(#acc)" opacity="0.52"/><rect x="592" y="158.9673969304672" width="10" height="9.032603069532808" rx="3" fill="url(#acc)" opacity="0.48"/><rect x="606" y="163.99918728696903" width="10" height="4.00081271303096" rx="3" fill="url(#acc)" opacity="0.35"/><rect x="620" y="153.13249192775882" width="10" height="14.867508072241183" rx="3" fill="url(#acc)" opacity="0.62"/>
    <rect x="744" y="84" width="196" height="96" rx="14" fill="url(#glass)" stroke="#4a3542" stroke-width="1"/>
    <text x="762" y="108" font-family="Inter,sans-serif" font-size="10.5" font-weight="700"
          letter-spacing="1.1" fill="#a8939e">REPORTS QWEB</text>
    <rect x="762" y="118" width="96" height="15" rx="7" fill="#ddd0d4" opacity="0.55"/>
    <rect x="762" y="152.72954461437396" width="10" height="15.270455385626024" rx="3" fill="url(#acc)" opacity="0.63"/><rect x="776" y="161.00472081044833" width="10" height="6.995279189551667" rx="3" fill="url(#acc)" opacity="0.42"/><rect x="790" y="158.98664463091217" width="10" height="9.013355369087824" rx="3" fill="url(#acc)" opacity="0.48"/><rect x="804" y="152.49106659848314" width="10" height="15.508933401516865" rx="3" fill="url(#acc)" opacity="0.64"/><rect x="818" y="146.97097627671403" width="10" height="21.029023723285963" rx="3" fill="url(#acc)" opacity="0.78"/><rect x="832" y="159.360429872815" width="10" height="8.639570127184998" rx="3" fill="url(#acc)" opacity="0.47"/>
    <rect x="108" y="196" width="470" height="190" rx="16" fill="url(#glass)" stroke="#4a3542" stroke-width="1"/>
    <text x="128" y="226" font-family="Inter,sans-serif" font-size="14" font-weight="600" fill="#f6f1e4">Pipeline value / month</text>
    <polygon points="128,362 128,362 189,334 251,348 312,306 374,320 435,264 497,278 558,236 558,362" fill="url(#acc)" opacity="0.14"/>
    <polyline points="128,362 189,334 251,348 312,306 374,320 435,264 497,278 558,236" fill="none" stroke="url(#acc)" stroke-width="3" stroke-linecap="round" stroke-linejoin="round"/>
    <circle cx="128" cy="362" r="4" fill="#836773"/><circle cx="189" cy="334" r="4" fill="#836773"/><circle cx="251" cy="348" r="4" fill="#836773"/><circle cx="312" cy="306" r="4" fill="#836773"/><circle cx="374" cy="320" r="4" fill="#836773"/><circle cx="435" cy="264" r="4" fill="#836773"/><circle cx="497" cy="278" r="4" fill="#836773"/><circle cx="558" cy="236" r="4" fill="#836773"/><circle cx="760" cy="292" r="66" fill="none" stroke="#3a2a35" stroke-width="18"/><path d="M 760.0 226.0 A 66 66 0 1 1 751.7 357.5" fill="none" stroke="#836773" stroke-width="18" stroke-linecap="round"/><path d="M 751.7 357.5 A 66 66 0 0 1 697.2 271.6" fill="none" stroke="#e3b375" stroke-width="18" stroke-linecap="round"/><path d="M 697.2 271.6 A 66 66 0 0 1 760.0 226.0" fill="none" stroke="#836773" stroke-width="18" stroke-linecap="round"/><rect x="736" y="285" width="48" height="13" rx="6" fill="#ddd0d4" opacity="0.45"/><rect x="620" y="196" width="272" height="190" rx="16" fill="url(#glass)" stroke="#4a3542" stroke-width="1"/><text x="640" y="226" font-family="Inter" font-size="14" font-weight="600" fill="#f6f1e4">Distribution</text><rect x="108" y="400" width="784" height="150" rx="16" fill="url(#glass)" stroke="#4a3542" stroke-width="1"/><rect x="126" y="420" width="240" height="8" rx="4" fill="#a8939e"/><rect x="420" y="420" width="150" height="8" rx="4" fill="#4a3542"/><rect x="620" y="420" width="120" height="8" rx="4" fill="#4a3542"/><rect x="800" y="416" width="70" height="18" rx="9" fill="url(#acc)" opacity="0.85"/><rect x="126" y="450" width="240" height="8" rx="4" fill="#4a3542"/><rect x="420" y="450" width="150" height="8" rx="4" fill="#4a3542"/><rect x="620" y="450" width="120" height="8" rx="4" fill="#4a3542"/><rect x="800" y="446" width="70" height="18" rx="9" fill="url(#acc)" opacity="0.85"/><rect x="126" y="480" width="240" height="8" rx="4" fill="#4a3542"/><rect x="420" y="480" width="150" height="8" rx="4" fill="#4a3542"/><rect x="620" y="480" width="120" height="8" rx="4" fill="#4a3542"/><rect x="800" y="476" width="70" height="18" rx="9" fill="url(#acc)" opacity="0.85"/><rect x="126" y="510" width="240" height="8" rx="4" fill="#4a3542"/><rect x="420" y="510" width="150" height="8" rx="4" fill="#4a3542"/><rect x="620" y="510" width="120" height="8" rx="4" fill="#4a3542"/><rect x="800" y="506" width="70" height="18" rx="9" fill="url(#acc)" opacity="0.85"/></g>
</svg>